<?xml version="1.0" standalone="yes"?>
<!DOCTYPE svg PUBLIC "-//W3C//DTD SVG 1.1//EN"
 "http://www.w3.org/Graphics/SVG/1.1/DTD/svg11.dtd">
<svg xmlns="http://www.w3.org/2000/svg" version="1.1"
  width="100%" height="100%" viewBox="0 0 1024 768"
  style="fill: none; font-family: Helvetica;
 font: Helvetica;
">

<!-- Creator: NGspice -->

<rect x="0" y="0" width="1024" height="768" fill="black" stroke="none"/>
<text stroke="none" fill="white" font-size="16" x="358" y="752">
v-sweep
</text>
<text stroke="none" fill="white" font-size="16" x="10" y="16">
dc1: ** sch_path: /home/prime/inv_test/inverter1.sch
</text>
<path stroke="white" d="M70 720l0 -672"/>
<text stroke="none" fill="white" font-size="16" x="55" y="728">
0.0
</text>
<path stroke="white" stroke-dasharray="1,2" d="M168 720l0 -672"/>
<text stroke="none" fill="white" font-size="16" x="153" y="728">
0.2
</text>
<path stroke="white" stroke-dasharray="1,2" d="M266 720l0 -672"/>
<text stroke="none" fill="white" font-size="16" x="251" y="728">
0.4
</text>
<path stroke="white" stroke-dasharray="1,2" d="M364 720l0 -672"/>
<text stroke="none" fill="white" font-size="16" x="349" y="728">
0.6
</text>
<path stroke="white" stroke-dasharray="1,2" d="M462 720l0 -672"/>
<text stroke="none" fill="white" font-size="16" x="447" y="728">
0.8
</text>
<path stroke="white" stroke-dasharray="1,2" d="M560 720l0 -672"/>
<text stroke="none" fill="white" font-size="16" x="545" y="728">
1.0
</text>
<path stroke="white" stroke-dasharray="1,2" d="M658 720l0 -672"/>
<text stroke="none" fill="white" font-size="16" x="643" y="728">
1.2
</text>
<path stroke="white" stroke-dasharray="1,2" d="M756 720l0 -672"/>
<text stroke="none" fill="white" font-size="16" x="741" y="728">
1.4
</text>
<path stroke="white" stroke-dasharray="1,2" d="M854 720l0 -672"/>
<text stroke="none" fill="white" font-size="16" x="839" y="728">
1.6
</text>
<path stroke="white" stroke-dasharray="1,2" d="M952 720l0 -672"/>
<text stroke="none" fill="white" font-size="16" x="937" y="728">
1.8
</text>
<text stroke="none" fill="white" font-size="16" x="614" y="752">
V
</text>
<path stroke="white" d="M70 720l882 0"/>
<text stroke="none" fill="white" font-size="16" x="28" y="728">
-0.0
</text>
<path stroke="white" stroke-dasharray="1,2" d="M70 624l882 0"/>
<text stroke="none" fill="white" font-size="16" x="28" y="632">
50.0
</text>
<path stroke="white" stroke-dasharray="1,2" d="M70 528l882 0"/>
<text stroke="none" fill="white" font-size="16" x="18" y="536">
100.0
</text>
<path stroke="white" stroke-dasharray="1,2" d="M70 432l882 0"/>
<text stroke="none" fill="white" font-size="16" x="18" y="440">
150.0
</text>
<path stroke="white" stroke-dasharray="1,2" d="M70 336l882 0"/>
<text stroke="none" fill="white" font-size="16" x="18" y="344">
200.0
</text>
<path stroke="white" stroke-dasharray="1,2" d="M70 240l882 0"/>
<text stroke="none" fill="white" font-size="16" x="18" y="248">
250.0
</text>
<path stroke="white" stroke-dasharray="1,2" d="M70 144l882 0"/>
<text stroke="none" fill="white" font-size="16" x="18" y="152">
300.0
</text>
<path stroke="white" stroke-dasharray="1,2" d="M70 48l882 0"/>
<text stroke="none" fill="white" font-size="16" x="18" y="56">
350.0
</text>
<text stroke="none" fill="white" font-size="16" x="10" y="32">
uA
</text>
<path stroke="red" d="M441 23l44 0"/>
<text stroke="none" fill="white" font-size="16" x="495" y="32">
-vds#branch
</text>
<path stroke="red" d="M70 720l882 0M70 720l882 0M70 720l128 0 1 -1 753 0M70 720l1 -1 1 0 0 -1 1 0 1 -1 1 0 0 -1 1 0 1 -1 1 0 0 -1 2 0 0 -1 1 0 1 -1 1 0 0 -1 2 0 0 -1 1 0 1 -1 1 0 1 -1 1 0 1 -1 1 0 1 -1 1 0 0 -1 1 0 1 -1 2 0 0 -1 2 0 0 -1 2 0"/>
<path stroke="red" d="M102 702l0 -1 2 0 1 -1 1 0 1 -1 2 0 0 -1 2 0 1 -1 2 0 0 -1 3 0 0 -1 2 0 1 -1 2 0 1 -1 2 0 1 -1 3 0 0 -1 3 0 1 -1 3 0 1 -1 4 0 0 -1 4 0 1 -1 5 0 0 -1 6 0 1 -1 8 0 0 -1 10 0 0 -1 14 0 0 -1 19 0 0 -1 27 0 0 -1 37 0 0 -1 48 0"/>
<path stroke="red" d="M321 679l1 -1 58 0 1 -1 68 0 0 -1 77 0 0 -1 83 0 0 -1 88 0 1 -1 91 0 0 -1 95 0 0 -1 68 0M70 720l0 -1 2 -2 0 -1 2 -2 0 -1 1 -1 0 -1 1 0 0 -1 1 -1 0 -1 1 0 0 -1 1 -1 0 -1 1 0 0 -1 1 -1 0 -1 1 0 0 -1 1 -1 0 -1 1 0 0 -1 2 -2"/>
<path stroke="red" d="M86 696l0 -1 2 -2 0 -1 2 -2 0 -1 1 0 0 -1 2 -2 0 -1 2 -2 0 -1 1 -1 0 -1 1 0 0 -1 2 -2 0 -1 1 0 0 -1 2 -2 0 -1 1 0 0 -1 3 -3 0 -1 1 0 0 -1 2 -2 0 -1 1 0 0 -1 1 0 0 -1 3 -3 0 -1 1 0 0 -1 1 0 0 -1 3 -3 0 -1 2 -2 0 -1 1 0 0 -1"/>
<path stroke="red" d="M122 647l1 0 0 -1 1 0 0 -1 6 -6 0 -1 1 0 0 -1 1 0 0 -1 1 0 0 -1 1 0 0 -1 1 0 0 -1 1 0 0 -1 1 0 0 -1 1 0 0 -1 1 0 0 -1 1 0 0 -1 1 0 0 -1 1 0 0 -1 1 0 0 -1 1 0 0 -1 7 -7 1 0 0 -1 1 0 0 -1 1 0 0 -1 1 0 0 -1 1 0 0 -1 1 0 3 -3"/>
<path stroke="red" d="M160 609l1 0 0 -1 1 0 0 -1 1 0 3 -3 1 0 0 -1 1 0 0 -1 1 0 0 -1 1 0 2 -2 1 0 0 -1 1 0 0 -1 1 0 1 -1 1 0 0 -1 1 0 1 -1 1 0 0 -1 1 0 0 -1 1 0 1 -1 1 0 0 -1 1 0 1 -1 1 0 0 -1 1 0 1 -1 1 0 1 -1 1 0 0 -1 1 0 0 -1 1 0 1 -1 1 0"/>
<path stroke="red" d="M196 583l1 -1 1 0 0 -1 2 0 0 -1 2 0 0 -1 1 0 1 -1 1 0 1 -1 1 0 1 -1 1 0 1 -1 1 0 1 -1 2 0 0 -1 2 0 0 -1 2 0 0 -1 2 0 0 -1 2 0 1 -1 2 0 0 -1 3 0 0 -1 2 0 1 -1 2 0 1 -1 2 0 1 -1 3 0 0 -1 3 0 0 -1 3 0 1 -1 3 0 1 -1 3 0 1 -1"/>
<path stroke="red" d="M255 559l4 0 0 -1 5 0 0 -1 4 0 1 -1 5 0 1 -1 5 0 1 -1 6 0 0 -1 7 0 0 -1 8 0 0 -1 8 0 1 -1 8 0 1 -1 10 0 0 -1 11 0 0 -1 12 0 1 -1 12 0 1 -1 14 0 0 -1 15 0 1 -1 16 0 1 -1 18 0 0 -1 19 0 1 -1 20 0 1 -1 22 0 0 -1 23 0 1 -1 25 0"/>
<path stroke="red" d="M544 537l0 -1 26 0 1 -1 27 0 1 -1 29 0 0 -1 30 0 1 -1 32 0 0 -1 33 0 0 -1 34 0 1 -1 35 0 1 -1 35 0 1 -1 37 0 1 -1 38 0 0 -1 40 0 0 -1 5 0M70 720l0 -1 1 -1 0 -2 1 -1 0 -1 1 -1 0 -1 1 -1 0 -2 1 -1 0 -1 1 -1 0 -1 1 -1 0 -2"/>
<path stroke="red" d="M77 702l1 -1 0 -1 1 -1 0 -1 1 -1 0 -1 1 -2 0 -1 1 -1 0 -1 1 -1 0 -1 1 -1 0 -1 1 -2 0 -1 1 -1 0 -1 1 -1 0 -1 1 -1 0 -1 1 -1 0 -2 1 -1 0 -1 1 -1 0 -1 1 -1 0 -1 1 -1 0 -1 1 -1 0 -1 1 -1 0 -3 1 -1 0 -1 1 -1 0 -1 1 -1 0 -1 1 -1"/>
<path stroke="red" d="M99 654l0 -1 1 -1 0 -1 1 -1 0 -1 1 -1 0 -1 1 -1 0 -1 1 -1 0 -2 1 -1 0 -1 1 -1 0 -1 1 -1 0 -1 1 -1 0 -1 1 -1 0 -1 1 -1 0 -1 1 -1 0 -1 1 -1 0 -1 1 -1 0 -1 1 -1 0 -1 1 -1 0 -1 1 -1 0 -1 1 -1 0 -1 1 -1 0 -1 1 0 0 -2 1 -1 0 -1"/>
<path stroke="red" d="M120 610l1 -1 0 -1 1 -1 0 -1 1 -1 0 -1 1 -1 0 -1 1 -1 0 -1 1 -1 0 -1 1 -1 0 -1 2 -2 0 -1 1 -1 0 -1 1 -1 0 -1 1 -1 0 -1 1 -1 0 -1 1 0 0 -1 1 -1 0 -1 1 -1 0 -1 1 -1 0 -1 1 -1 0 -1 1 0 0 -1 1 -1 0 -1 1 -1 0 -1 1 -1 0 -1 1 0"/>
<path stroke="red" d="M143 569l0 -1 1 -1 0 -2 1 -1 0 -1 1 0 0 -1 1 -1 0 -1 1 -1 0 -1 2 -2 0 -1 1 -1 0 -1 2 -2 0 -1 1 -1 0 -1 1 0 0 -1 1 -1 0 -1 1 -1 0 -1 1 0 0 -1 1 -1 0 -1 2 -2 0 -1 2 -2 0 -1 1 -1 0 -1 1 0 0 -1 1 -1 0 -1 1 0 0 -1 1 -1 0 -2 1 0"/>
<path stroke="red" d="M169 525l0 -1 1 -1 0 -1 1 0 0 -1 1 -1 0 -1 1 0 0 -1 1 -1 0 -1 1 0 0 -1 2 -2 0 -1 2 -2 0 -1 2 -2 0 -1 1 0 0 -1 2 -2 0 -1 2 -2 0 -1 1 0 0 -1 2 -2 0 -1 1 0 0 -1 2 -2 0 -1 1 0 0 -2 1 0 0 -1 2 -2 0 -1 1 0 0 -1 2 -2 0 -1 1 0 0 -1"/>
<path stroke="red" d="M200 480l3 -3 0 -1 1 0 0 -1 3 -3 0 -1 1 0 0 -1 1 0 0 -1 3 -3 0 -1 1 0 0 -1 1 0 0 -1 1 0 0 -1 2 -2 0 -1 1 0 0 -1 4 -4 0 -1 1 0 0 -1 1 0 0 -1 1 0 0 -1 1 0 0 -1 1 0 0 -1 1 0 0 -1 1 0 0 -1 10 -10 1 0 0 -1 1 0 0 -1 1 0 0 -1 4 -4"/>
<path stroke="red" d="M246 429l1 0 0 -1 1 0 0 -1 1 0 0 -1 1 0 0 -1 1 0 2 -2 1 0 0 -1 1 0 0 -1 1 0 0 -1 1 0 2 -2 1 0 0 -1 1 0 0 -1 1 0 1 -1 1 0 0 -1 1 0 0 -1 1 0 0 -1 1 0 1 -1 1 0 0 -1 1 0 2 -2 1 0 0 -1 1 0 1 -1 1 0 1 -1 1 0 0 -1 1 0 1 -1 1 0"/>
<path stroke="red" d="M281 403l0 -1 2 0 0 -1 1 0 1 -1 1 0 0 -1 2 0 0 -1 2 0 0 -1 1 0 0 -1 2 0 0 -1 2 0 0 -1 2 0 0 -1 2 0 1 -1 1 0 1 -1 1 0 1 -1 2 0 0 -1 2 0 1 -1 2 0 0 -1 2 0 1 -1 1 0 1 -1 2 0 1 -1 2 0 0 -1 3 0 0 -1 3 0 1 -1 2 0 1 -1 3 0 0 -1"/>
<path stroke="red" d="M334 379l3 0 1 -1 2 0 1 -1 3 0 1 -1 3 0 1 -1 3 0 1 -1 3 0 1 -1 4 0 1 -1 3 0 1 -1 4 0 1 -1 4 0 1 -1 5 0 0 -1 6 0 0 -1 5 0 1 -1 6 0 0 -1 6 0 1 -1 6 0 1 -1 6 0 0 -1 7 0 1 -1 7 0 1 -1 7 0 1 -1 8 0 1 -1 8 0 1 -1 8 0 1 -1 9 0"/>
<path stroke="red" d="M479 356l1 -1 9 0 1 -1 10 0 1 -1 10 0 1 -1 11 0 1 -1 11 0 1 -1 12 0 0 -1 13 0 0 -1 14 0 0 -1 14 0 0 -1 15 0 0 -1 15 0 0 -1 15 0 1 -1 16 0 1 -1 16 0 0 -1 17 0 1 -1 18 0 0 -1 18 0 1 -1 18 0 1 -1 19 0 0 -1 20 0 0 -1 21 0 0 -1"/>
<path stroke="red" d="M802 334l21 0 1 -1 21 0 0 -1 22 0 1 -1 22 0 1 -1 22 0 1 -1 23 0 1 -1 14 0M70 720l0 -2 1 -1 0 -2 1 -1 0 -2 1 -1 0 -2 1 -1 0 -1 1 -2 0 -1 1 -2 0 -1 1 -2 0 -1 1 -2 0 -1 1 -2 0 -1 1 -2 0 -1 1 -2 0 -1 1 -2 0 -1 1 -1 0 -2 1 -1"/>
<path stroke="red" d="M84 679l0 -2 1 -1 0 -2 1 -1 0 -2 1 -1 0 -1 1 -2 0 -1 1 -2 0 -1 1 -2 0 -1 1 -1 0 -2 1 -1 0 -2 1 -1 0 -1 1 -2 0 -1 1 -2 0 -2 1 -2 0 -1 1 -2 0 -1 1 -1 0 -2 1 -1 0 -1 1 -2 0 -1 1 -2 0 -1 1 -1 0 -2 1 -1 0 -1 1 -2 0 -1 1 -1 0 -2"/>
<path stroke="red" d="M105 617l1 -1 0 -1 1 -2 0 -1 1 -1 0 -2 1 -1 0 -1 1 -2 0 -1 1 -1 0 -2 1 -1 0 -1 1 -2 0 -1 1 -1 0 -2 1 -1 0 -1 1 -2 0 -1 1 -1 0 -1 1 -2 0 -1 1 -1 0 -3 1 -1 0 -1 1 -2 0 -1 1 -1 0 -2 1 -1 0 -1 1 -1 0 -2 1 -1 0 -1 1 -1 0 -2 1 -1"/>
<path stroke="red" d="M127 560l0 -1 1 -1 0 -2 1 -1 0 -1 1 -1 0 -2 1 -1 0 -1 1 -1 0 -2 1 -1 0 -1 1 -1 0 -1 1 -2 0 -1 1 -1 0 -1 1 -2 0 -1 1 -1 0 -1 1 -1 0 -2 1 -1 0 -1 1 -1 0 -1 1 -2 0 -1 1 -1 0 -1 1 -1 0 -3 1 -1 0 -1 1 -1 0 -1 1 -2 0 -1 1 -1 0 -1"/>
<path stroke="red" d="M148 507l1 -1 0 -1 1 -2 0 -1 1 -1 0 -1 1 -1 0 -1 1 -1 0 -2 1 -1 0 -1 1 -1 0 -1 1 -1 0 -1 1 -2 0 -1 1 -1 0 -1 1 -1 0 -1 1 -1 0 -1 1 -1 0 -2 1 -1 0 -1 1 -1 0 -1 1 -1 0 -1 1 -1 0 -1 1 -1 0 -2 1 -1 0 -1 1 -1 0 -2 1 -1 0 -1 1 -1"/>
<path stroke="red" d="M170 458l0 -1 1 -1 0 -1 1 -1 0 -2 1 -1 0 -1 1 -1 0 -1 1 -1 0 -1 1 -1 0 -1 1 -1 0 -1 1 -1 0 -1 1 -1 0 -1 1 -1 0 -1 1 -1 0 -1 1 -1 0 -1 1 -1 0 -1 1 -2 0 -1 1 -1 0 -1 1 -1 0 -1 1 -1 0 -1 1 -1 0 -1 1 -1 0 -1 1 -1 0 -1 1 -1 0 -1"/>
<path stroke="red" d="M191 413l1 -1 0 -1 1 -1 0 -1 1 -1 0 -1 1 -1 0 -1 1 -1 0 -1 1 -1 0 -1 1 -1 0 -1 1 -1 0 -1 1 -1 0 -1 1 -1 0 -1 1 -1 0 -1 1 -1 0 -1 1 -1 0 -1 2 -2 0 -1 1 -1 0 -1 1 -1 0 -1 1 -1 0 -1 1 -1 0 -1 1 -1 0 -1 1 0 0 -1 1 -1 0 -1 1 -1"/>
<path stroke="red" d="M214 370l0 -1 1 -1 0 -1 1 -1 0 -1 1 0 0 -2 1 -1 0 -1 1 -1 0 -1 2 -2 0 -1 1 -1 0 -1 1 -1 0 -1 2 -2 0 -1 1 -1 0 -1 1 -1 0 -1 1 0 0 -1 1 -1 0 -1 1 -1 0 -1 1 0 0 -1 1 -1 0 -1 1 -1 0 -1 1 0 0 -1 1 -1 0 -1 1 -1 0 -1 1 0 0 -1 1 -1"/>
<path stroke="red" d="M238 328l0 -1 2 -2 0 -1 1 -1 0 -1 1 0 0 -2 1 -1 0 -1 1 0 0 -1 1 -1 0 -1 1 0 0 -1 1 -1 0 -1 2 -2 0 -1 2 -2 0 -1 2 -2 0 -1 2 -2 0 -1 2 -2 0 -1 1 0 0 -1 1 -1 0 -1 1 0 0 -1 1 -1 0 -1 1 0 0 -1 2 -2 0 -1 1 0 0 -1 1 -1 0 -1 1 -1"/>
<path stroke="red" d="M267 283l0 -1 1 0 0 -1 2 -2 0 -1 1 0 0 -1 2 -2 0 -1 1 0 0 -1 2 -2 0 -1 1 0 0 -1 2 -2 0 -1 1 0 0 -1 1 0 0 -1 2 -2 0 -1 1 0 0 -1 1 0 0 -1 2 -2 0 -1 1 0 0 -1 1 0 0 -1 1 0 0 -1 1 -1 0 -1 1 0 0 -1 4 -4 0 -1 1 0 0 -1 1 0 0 -1"/>
<path stroke="red" d="M298 243l1 0 0 -1 1 0 0 -1 1 0 0 -1 14 -14 0 -1 1 0 4 -4 1 0 0 -1 1 0 0 -1 1 0 0 -1 1 0 0 -1 1 0 2 -2 1 0 0 -1 1 0 0 -1 1 0 2 -2 1 0 0 -1 1 0 2 -2 1 0 0 -1 1 0 1 -1 1 0 0 -1 1 -1 1 0 0 -1 1 0 1 -1 1 0 0 -1 1 0 1 -1 1 0 1 -1"/>
<path stroke="red" d="M349 199l1 0 0 -1 1 0 1 -1 1 0 1 -1 1 0 0 -1 1 0 1 -1 1 0 1 -1 1 0 1 -1 1 0 0 -1 2 0 0 -1 1 0 1 -1 1 0 1 -1 1 0 1 -1 1 0 1 -1 2 0 0 -1 2 0 0 -1 2 0 1 -1 1 0 1 -1 2 0 0 -1 2 0 1 -1 2 0 0 -1 2 0 0 -1 3 0 0 -1 2 0 1 -1 2 0"/>
<path stroke="red" d="M398 176l1 -1 2 0 1 -1 2 0 1 -1 2 0 1 -1 2 0 1 -1 2 0 1 -1 3 0 0 -1 3 0 1 -1 3 0 0 -1 3 0 1 -1 3 0 1 -1 3 0 1 -1 3 0 0 -1 4 0 1 -1 3 0 1 -1 4 0 0 -1 5 0 0 -1 4 0 1 -1 4 0 0 -1 5 0 0 -1 5 0 1 -1 5 0 0 -1 5 0 0 -1 5 0 1 -1"/>
<path stroke="red" d="M493 152l5 0 1 -1 6 0 0 -1 6 0 0 -1 6 0 1 -1 6 0 0 -1 7 0 0 -1 7 0 0 -1 7 0 0 -1 8 0 0 -1 7 0 0 -1 8 0 1 -1 8 0 0 -1 8 0 0 -1 9 0 0 -1 9 0 0 -1 9 0 0 -1 9 0 1 -1 9 0 1 -1 9 0 0 -1 10 0 1 -1 10 0 0 -1 11 0 0 -1 11 0 0 -1"/>
<path stroke="red" d="M684 129l11 0 1 -1 11 0 0 -1 12 0 1 -1 11 0 1 -1 12 0 1 -1 12 0 0 -1 13 0 1 -1 13 0 0 -1 14 0 0 -1 14 0 0 -1 15 0 0 -1 14 0 1 -1 14 0 1 -1 15 0 0 -1 15 0 1 -1 15 0 1 -1 16 0 0 -1 16 0 1 -1 15 0"/>
</svg>
