<?xml version="1.0" standalone="yes"?>
<!DOCTYPE svg PUBLIC "-//W3C//DTD SVG 1.1//EN"
 "http://www.w3.org/Graphics/SVG/1.1/DTD/svg11.dtd">
<svg xmlns="http://www.w3.org/2000/svg" version="1.1"
  width="100%" height="100%" viewBox="0 0 1024 768"
  style="fill: none; font-family: Helvetica;
 font: Helvetica;
">

<!-- Creator: NGspice -->

<rect x="0" y="0" width="1024" height="768" fill="black" stroke="none"/>
<text stroke="none" fill="white" font-size="16" x="358" y="752">
v-sweep
</text>
<text stroke="none" fill="white" font-size="16" x="10" y="16">
dc1: ** sch_path: /home/prime/inv_test/inverter1.sch
</text>
<path stroke="white" d="M70 720l0 -671"/>
<text stroke="none" fill="white" font-size="16" x="55" y="728">
0.0
</text>
<path stroke="white" stroke-dasharray="1,2" d="M168 720l0 -671"/>
<text stroke="none" fill="white" font-size="16" x="153" y="728">
0.2
</text>
<path stroke="white" stroke-dasharray="1,2" d="M266 720l0 -671"/>
<text stroke="none" fill="white" font-size="16" x="251" y="728">
0.4
</text>
<path stroke="white" stroke-dasharray="1,2" d="M364 720l0 -671"/>
<text stroke="none" fill="white" font-size="16" x="349" y="728">
0.6
</text>
<path stroke="white" stroke-dasharray="1,2" d="M462 720l0 -671"/>
<text stroke="none" fill="white" font-size="16" x="447" y="728">
0.8
</text>
<path stroke="white" stroke-dasharray="1,2" d="M560 720l0 -671"/>
<text stroke="none" fill="white" font-size="16" x="545" y="728">
1.0
</text>
<path stroke="white" stroke-dasharray="1,2" d="M658 720l0 -671"/>
<text stroke="none" fill="white" font-size="16" x="643" y="728">
1.2
</text>
<path stroke="white" stroke-dasharray="1,2" d="M756 720l0 -671"/>
<text stroke="none" fill="white" font-size="16" x="741" y="728">
1.4
</text>
<path stroke="white" stroke-dasharray="1,2" d="M854 720l0 -671"/>
<text stroke="none" fill="white" font-size="16" x="839" y="728">
1.6
</text>
<path stroke="white" stroke-dasharray="1,2" d="M952 720l0 -671"/>
<text stroke="none" fill="white" font-size="16" x="937" y="728">
1.8
</text>
<text stroke="none" fill="white" font-size="16" x="614" y="752">
V
</text>
<path stroke="white" d="M70 720l882 0"/>
<text stroke="none" fill="white" font-size="16" x="28" y="728">
-0.0
</text>
<path stroke="white" stroke-dasharray="1,2" d="M70 659l882 0"/>
<text stroke="none" fill="white" font-size="16" x="28" y="667">
50.0
</text>
<path stroke="white" stroke-dasharray="1,2" d="M70 598l882 0"/>
<text stroke="none" fill="white" font-size="16" x="18" y="606">
100.0
</text>
<path stroke="white" stroke-dasharray="1,2" d="M70 537l882 0"/>
<text stroke="none" fill="white" font-size="16" x="18" y="545">
150.0
</text>
<path stroke="white" stroke-dasharray="1,2" d="M70 476l882 0"/>
<text stroke="none" fill="white" font-size="16" x="18" y="484">
200.0
</text>
<path stroke="white" stroke-dasharray="1,2" d="M70 415l882 0"/>
<text stroke="none" fill="white" font-size="16" x="18" y="423">
250.0
</text>
<path stroke="white" stroke-dasharray="1,2" d="M70 354l882 0"/>
<text stroke="none" fill="white" font-size="16" x="18" y="362">
300.0
</text>
<path stroke="white" stroke-dasharray="1,2" d="M70 293l882 0"/>
<text stroke="none" fill="white" font-size="16" x="18" y="301">
350.0
</text>
<path stroke="white" stroke-dasharray="1,2" d="M70 232l882 0"/>
<text stroke="none" fill="white" font-size="16" x="18" y="240">
400.0
</text>
<path stroke="white" stroke-dasharray="1,2" d="M70 171l882 0"/>
<text stroke="none" fill="white" font-size="16" x="18" y="179">
450.0
</text>
<path stroke="white" stroke-dasharray="1,2" d="M70 110l882 0"/>
<text stroke="none" fill="white" font-size="16" x="18" y="118">
500.0
</text>
<path stroke="white" stroke-dasharray="1,2" d="M70 49l882 0"/>
<text stroke="none" fill="white" font-size="16" x="18" y="57">
550.0
</text>
<text stroke="none" fill="white" font-size="16" x="10" y="32">
uA
</text>
<path stroke="red" d="M441 23l44 0"/>
<text stroke="none" fill="white" font-size="16" x="495" y="32">
-vds#branch
</text>
<path stroke="red" d="M70 720l882 0M70 720l311 0 1 -1 26 0 1 -1 13 0 1 -1 9 0 0 -1 7 0 0 -1 6 0 1 -1 5 0 0 -1 5 0 0 -1 4 0 1 -1 3 0 0 -1 3 0 1 -1 3 0 0 -1 3 0 0 -1 3 0 0 -1 3 0 0 -1 3 0 0 -1 2 0 1 -1 1 0 1 -1 2 0 0 -1 2 0 1 -1 1 0 1 -1 2 0 0 -1"/>
<path stroke="red" d="M497 698l2 0 0 -1 2 0 0 -1 2 0 1 -1 1 0 1 -1 1 0 1 -1 1 0 0 -1 2 0 0 -1 1 0 1 -1 1 0 1 -1 1 0 0 -1 2 0 0 -1 1 0 1 -1 1 0 0 -1 2 0 0 -1 1 0 1 -1 1 0 0 -1 2 0 0 -1 1 0 1 -1 1 0 0 -1 1 0 1 -1 1 0 0 -1 1 0 2 -2 1 0 0 -1 1 0"/>
<path stroke="red" d="M539 674l1 -1 1 0 0 -1 1 0 1 -1 1 0 0 -1 1 0 1 -1 1 0 0 -1 1 0 2 -2 1 0 0 -1 1 0 1 -1 1 0 0 -1 1 0 0 -1 1 0 1 -1 1 0 0 -1 1 0 1 -1 0 -1 1 0 1 -1 1 0 0 -1 1 0 0 -1 1 0 2 -2 1 0 0 -1 1 0 2 -2 1 0 0 -1 1 0 0 -1 1 0 2 -2 1 0"/>
<path stroke="red" d="M577 646l0 -1 1 0 0 -1 1 0 2 -2 1 0 0 -1 1 0 0 -1 1 0 0 -1 1 0 0 -1 1 0 0 -1 1 0 2 -2 1 0 0 -1 1 0 0 -1 1 0 0 -1 1 0 2 -2 1 0 0 -1 1 0 0 -1 1 0 0 -1 1 0 3 -3 1 0 0 -1 1 0 0 -1 1 0 0 -1 1 0 6 -6 1 0 0 -1 1 0 0 -1 1 0 0 -1"/>
<path stroke="red" d="M615 612l1 0 4 -4 1 0 0 -1 1 0 0 -1 1 0 0 -1 1 0 0 -1 1 0 4 -4 1 0 0 -1 1 0 0 -1 1 0 0 -1 1 0 0 -1 1 0 0 -1 1 0 0 -1 1 0 0 -1 1 0 0 -1 1 0 5 -5 1 0 0 -1 1 0 0 -1 1 0 0 -1 1 0 0 -1 1 0 0 -1 1 0 5 -5 1 0 0 -1 1 0 0 -1 1 0"/>
<path stroke="red" d="M657 575l0 -1 1 0 0 -1 1 -1 1 0 0 -1 1 0 0 -1 1 0 0 -1 1 0 0 -1 1 0 0 -1 1 0 6 -6 1 0 0 -1 1 0 0 -1 1 0 0 -1 1 0 0 -1 1 0 0 -1 1 0 5 -5 0 -1 1 0 6 -6 1 0 0 -1 1 0 0 -1 1 0 0 -1 1 0 0 -1 1 0 0 -1 1 0 0 -1 1 0 6 -6 1 0 0 -1"/>
<path stroke="red" d="M703 531l1 0 0 -1 1 0 0 -1 1 0 0 -1 1 0 0 -1 1 -1 1 0 0 -1 1 0 0 -1 1 0 0 -1 1 0 0 -1 1 0 0 -1 1 0 6 -6 1 0 0 -1 1 0 0 -1 1 0 0 -1 1 0 0 -1 1 0 0 -1 1 0 5 -5 0 -1 1 0 5 -5 1 0 0 -1 1 0 0 -1 1 0 0 -1 1 0 0 -1 1 0 0 -1 1 0"/>
<path stroke="red" d="M743 494l5 -5 1 0 0 -1 1 0 0 -1 1 0 0 -1 1 0 0 -1 1 0 0 -1 1 0 2 -2 0 -1 1 0 0 -1 1 0 5 -5 1 0 0 -1 1 0 0 -1 1 0 0 -1 1 0 0 -1 1 0 4 -4 1 0 0 -1 1 0 0 -1 1 0 0 -1 1 0 0 -1 1 0 3 -3 0 -1 1 0 4 -4 1 0 0 -1 1 0 0 -1 1 0 0 -1"/>
<path stroke="red" d="M788 452l1 0 0 -1 1 0 3 -3 1 0 0 -1 1 0 0 -1 1 0 0 -1 1 0 0 -1 1 0 3 -3 1 0 0 -1 1 0 0 -1 1 0 0 -1 1 0 0 -1 1 0 0 -1 1 0 0 -1 1 0 0 -1 1 0 3 -3 1 0 0 -1 1 0 0 -1 1 0 0 -1 1 0 3 -3 1 0 0 -1 1 0 0 -1 1 0 0 -1 1 0 3 -3 1 0"/>
<path stroke="red" d="M827 419l0 -1 1 0 0 -1 1 0 0 -1 1 0 0 -1 1 0 0 -1 1 0 3 -3 1 0 0 -1 1 0 0 -1 1 0 3 -3 1 0 0 -1 1 0 0 -1 1 0 3 -3 1 0 0 -1 1 0 0 -1 1 0 3 -3 1 0 0 -1 1 -1 1 0 0 -1 1 0 0 -1 1 0 2 -2 1 0 0 -1 1 0 0 -1 1 0 0 -1 1 0 2 -2 1 0"/>
<path stroke="red" d="M867 385l0 -1 1 0 0 -1 1 0 2 -2 1 0 0 -1 1 0 0 -1 1 0 2 -2 1 0 0 -1 1 0 0 -1 1 0 0 -1 1 0 0 -1 1 0 2 -2 1 0 0 -1 1 0 0 -1 1 0 1 -1 1 0 0 -1 1 0 0 -1 1 0 2 -2 1 0 0 -1 1 0 0 -1 1 0 2 -2 1 0 0 -1 1 0 2 -2 1 0 0 -1 1 0 0 -1"/>
<path stroke="red" d="M903 355l1 0 0 -1 1 0 2 -2 1 0 0 -1 1 0 0 -1 1 0 1 -1 1 0 0 -1 1 0 0 -1 1 0 1 -1 1 0 0 -1 1 0 0 -1 1 0 2 -2 1 0 0 -1 1 0 2 -2 1 0 0 -1 1 0 3 -3 1 0 0 -1 1 0 2 -2 1 0 0 -1 1 0 2 -2 1 0 0 -1 1 0 1 -1 1 0 0 -1 1 0 0 -1 1 0"/>
<path stroke="red" d="M943 325l1 -1 1 0 0 -1 1 0 2 -2 1 0 0 -1 1 0 1 -1 1 0 0 -1M70 720l302 0 0 -1 26 0 1 -1 13 0 1 -1 8 0 1 -1 7 0 1 -1 5 0 1 -1 4 0 1 -1 4 0 1 -1 4 0 0 -1 4 0 0 -1 3 0 1 -1 3 0 0 -1 2 0 1 -1 2 0 1 -1 2 0 1 -1 2 0 1 -1 2 0 0 -1"/>
<path stroke="red" d="M475 703l2 0 1 -1 2 0 0 -1 2 0 0 -1 2 0 1 -1 1 0 1 -1 1 0 0 -1 2 0 1 -1 1 0 1 -1 1 0 1 -1 1 0 0 -1 2 0 0 -1 2 0 0 -1 1 0 1 -1 1 0 1 -1 1 0 0 -1 2 0 0 -1 1 0 1 -1 1 0 0 -1 1 0 1 -1 1 0 0 -1 1 0 1 -1 1 0 0 -1 1 0 1 -1 1 0"/>
<path stroke="red" d="M519 680l0 -1 1 0 1 -1 1 0 0 -1 1 0 1 -1 1 0 0 -1 1 0 1 -1 1 0 0 -1 1 0 0 -1 1 0 1 -1 1 0 0 -1 1 0 2 -2 1 0 0 -1 1 0 0 -1 1 0 0 -1 1 0 1 -1 1 0 0 -1 1 0 0 -1 1 0 2 -2 1 0 0 -1 1 0 0 -1 1 0 2 -2 1 0 0 -1 1 0 0 -1 1 0 3 -3"/>
<path stroke="red" d="M556 651l1 0 0 -1 1 0 0 -1 1 0 1 -1 0 -1 1 0 0 -1 1 0 3 -3 1 0 0 -1 1 0 0 -1 1 0 0 -1 1 0 0 -1 1 0 4 -4 1 0 0 -1 1 0 0 -1 1 0 0 -1 1 0 0 -1 1 0 0 -1 1 0 4 -4 0 -1 1 0 0 -1 1 0 9 -9 1 0 0 -1 1 0 0 -1 1 0 0 -1 1 0 0 -1 1 0"/>
<path stroke="red" d="M600 611l0 -1 1 0 0 -1 1 0 0 -1 1 0 0 -1 1 0 0 -1 1 0 0 -1 1 0 0 -1 1 0 0 -1 1 0 0 -1 1 0 0 -1 24 -24 0 -1 1 0 0 -1 1 0 0 -1 11 -11 0 -1 1 0 0 -1 1 0 0 -1 1 0 0 -1 1 0 0 -1 1 0 0 -1 1 0 0 -1 1 0 0 -1 1 0 0 -1 4 -4 0 -1 1 0"/>
<path stroke="red" d="M659 549l0 -1 1 0 0 -1 1 0 0 -1 7 -7 0 -1 1 0 0 -1 1 0 0 -1 1 0 0 -1 1 0 0 -1 1 0 0 -1 6 -6 0 -1 1 0 0 -1 1 0 0 -1 1 0 0 -1 2 -2 0 -1 1 0 0 -1 1 0 0 -1 1 0 0 -1 1 0 0 -1 5 -5 0 -1 1 0 0 -1 1 0 0 -1 1 0 0 -1 1 0 0 -1 5 -5"/>
<path stroke="red" d="M702 501l0 -1 1 0 0 -1 1 0 0 -1 1 0 0 -1 1 0 0 -1 1 -1 0 -1 1 0 0 -1 1 0 0 -1 1 0 0 -1 4 -4 0 -1 1 0 0 -1 1 0 0 -1 1 0 0 -1 1 0 0 -1 4 -4 0 -1 1 0 0 -1 1 0 0 -1 1 0 0 -1 5 -5 0 -1 1 0 0 -1 2 -2 0 -1 1 0 0 -1 1 0 0 -1 1 0"/>
<path stroke="red" d="M736 462l0 -1 4 -4 0 -1 1 0 0 -1 1 0 0 -1 1 0 0 -1 4 -4 0 -1 1 0 0 -1 1 0 0 -1 1 0 0 -1 4 -4 0 -1 1 0 0 -1 1 0 0 -2 1 0 0 -1 1 0 0 -1 1 0 0 -1 4 -4 0 -1 1 0 0 -1 1 0 0 -1 1 0 0 -1 4 -4 0 -1 1 0 0 -1 1 0 0 -1 4 -4 0 -1 1 0"/>
<path stroke="red" d="M777 414l0 -1 1 0 0 -1 1 0 0 -1 1 -1 0 -1 1 0 0 -1 4 -4 0 -1 1 0 0 -1 1 0 0 -1 1 0 0 -1 3 -3 0 -1 1 0 0 -1 1 0 0 -1 1 0 0 -1 3 -3 0 -1 1 0 0 -1 1 0 0 -1 1 0 0 -1 3 -3 0 -1 1 0 0 -1 1 0 0 -1 1 -1 0 -1 1 0 0 -1 1 0 0 -1 4 -4"/>
<path stroke="red" d="M812 372l0 -1 1 0 0 -1 1 0 0 -1 4 -4 0 -1 1 0 0 -1 1 0 0 -1 4 -4 0 -1 1 0 0 -1 1 0 0 -1 3 -3 0 -1 3 -3 0 -1 1 0 0 -1 1 0 0 -1 1 0 0 -1 3 -3 0 -1 1 0 0 -1 1 0 0 -1 1 0 0 -1 3 -3 0 -1 1 0 0 -1 1 0 0 -1 1 0 0 -1 3 -3 0 -1 1 0"/>
<path stroke="red" d="M851 326l0 -1 1 0 0 -1 2 -2 0 -1 1 0 0 -1 3 -3 0 -1 1 0 0 -1 1 0 0 -1 1 0 0 -1 3 -3 0 -1 1 0 0 -1 1 0 0 -1 1 0 0 -1 3 -3 0 -1 1 0 0 -1 1 0 0 -1 4 -4 0 -1 1 0 0 -1 1 0 0 -2 1 0 0 -1 1 0 0 -1 1 0 0 -1 3 -3 0 -1 1 0 0 -1 1 0"/>
<path stroke="red" d="M886 284l0 -1 1 0 0 -1 3 -3 0 -1 1 0 0 -1 1 0 0 -1 4 -4 0 -1 1 0 0 -1 1 0 0 -1 4 -4 0 -1 1 0 0 -1 1 -1 0 -1 1 0 0 -1 1 0 0 -1 1 0 0 -1 3 -3 0 -1 1 0 0 -1 1 0 0 -1 1 0 0 -1 3 -3 0 -1 1 0 0 -1 1 0 0 -1 1 0 0 -1 3 -3 0 -1 1 0"/>
<path stroke="red" d="M923 240l0 -1 1 0 0 -1 1 0 0 -1 2 -2 0 -1 4 -4 0 -1 1 0 0 -1 1 0 0 -1 4 -4 0 -1 1 0 0 -1 1 0 0 -1 4 -4 0 -1 1 0 0 -1 1 0 0 -1 4 -4 0 -1 1 0 0 -1 1 0 0 -1 1 0 0 -1M70 720l295 0 0 -1 26 0 0 -1 14 0 0 -1 9 0 0 -1 7 0 1 -1 5 0"/>
<path stroke="red" d="M427 715l1 -1 5 0 0 -1 4 0 1 -1 3 0 1 -1 3 0 1 -1 3 0 0 -1 3 0 1 -1 2 0 1 -1 2 0 1 -1 2 0 1 -1 1 0 1 -1 2 0 1 -1 1 0 1 -1 2 0 0 -1 2 0 1 -1 1 0 1 -1 2 0 0 -1 2 0 0 -1 2 0 0 -1 2 0 0 -1 2 0 0 -1 1 0 0 -1 2 0 0 -1 2 0 0 -1"/>
<path stroke="red" d="M491 691l1 0 1 -1 1 0 1 -1 1 0 0 -1 2 0 0 -1 1 0 1 -1 1 0 0 -1 1 0 1 -1 1 0 0 -1 1 0 1 -1 1 0 0 -1 1 0 1 -1 1 0 0 -1 1 0 0 -1 1 0 1 -1 1 0 0 -1 1 0 1 -1 1 0 0 -1 1 0 2 -2 1 0 0 -1 1 0 2 -2 1 0 0 -1 1 0 2 -2 1 0 0 -1 1 0"/>
<path stroke="red" d="M530 665l0 -1 1 0 2 -2 1 0 0 -1 1 0 0 -1 1 0 0 -1 1 0 0 -1 1 0 3 -3 1 0 0 -1 1 0 0 -1 1 0 0 -1 1 0 3 -3 1 0 0 -1 1 0 0 -1 1 0 0 -1 1 0 4 -4 1 0 0 -1 1 0 0 -1 1 0 0 -1 1 0 0 -1 1 -1 1 0 0 -1 1 0 0 -1 1 0 0 -1 1 0 0 -1 1 0"/>
<path stroke="red" d="M566 633l0 -1 1 0 0 -1 1 0 0 -1 1 0 24 -24 0 -1 1 0 0 -1 1 0 0 -1 1 0 0 -1 1 0 0 -1 1 0 0 -1 1 0 0 -1 1 0 0 -1 1 0 0 -1 1 0 0 -1 1 0 0 -1 1 0 0 -1 1 0 0 -1 1 0 0 -1 1 0 0 -1 1 0 0 -1 1 0 0 -1 1 -1 0 -1 1 0 0 -1 1 0 0 -1"/>
<path stroke="red" d="M612 585l1 0 0 -1 1 0 0 -1 1 0 0 -1 1 0 0 -1 1 0 0 -1 1 0 0 -1 8 -8 0 -1 1 0 0 -1 1 0 0 -1 1 0 0 -1 1 0 0 -1 1 0 0 -1 2 -2 0 -1 1 0 0 -1 1 0 0 -1 1 0 0 -1 6 -6 0 -1 1 0 0 -1 1 0 0 -1 1 0 0 -1 1 0 0 -1 5 -5 0 -1 1 0 0 -1"/>
<path stroke="red" d="M652 541l1 0 0 -1 1 0 0 -1 1 0 0 -1 3 -3 0 -1 5 -5 0 -1 1 0 0 -1 1 0 0 -1 1 0 0 -1 4 -4 0 -1 1 0 0 -1 1 0 0 -1 1 0 0 -1 4 -4 0 -1 1 0 0 -1 1 0 0 -1 1 0 0 -1 2 -2 0 -1 1 0 0 -1 4 -4 0 -1 1 0 0 -1 1 0 0 -1 4 -4 0 -1 1 0 0 -1"/>
<path stroke="red" d="M694 492l1 0 0 -1 4 -4 0 -1 1 0 0 -1 1 0 0 -1 4 -4 0 -1 1 0 0 -1 1 0 0 -2 1 0 0 -1 1 0 0 -1 1 0 0 -1 3 -3 0 -1 1 0 0 -1 1 0 0 -1 4 -4 0 -1 1 0 0 -1 1 0 0 -1 3 -3 0 -1 1 0 0 -1 1 0 0 -1 3 -3 0 -1 1 0 0 -1 1 0 0 -2 1 0 0 -1"/>
<path stroke="red" d="M732 446l1 0 0 -1 1 0 0 -1 3 -3 0 -1 1 0 0 -1 1 0 0 -1 3 -3 0 -1 1 0 0 -1 1 0 0 -1 3 -3 0 -1 1 0 0 -1 1 0 0 -1 3 -3 0 -1 1 0 0 -1 1 0 0 -1 2 -2 0 -1 3 -3 0 -1 1 0 0 -1 1 0 0 -1 3 -3 0 -1 1 0 0 -1 1 0 0 -1 2 -2 0 -1 1 0 0 -1"/>
<path stroke="red" d="M769 401l1 0 0 -1 3 -3 0 -1 1 0 0 -1 1 0 0 -1 3 -3 0 -1 1 0 0 -1 1 0 0 -2 1 0 0 -1 1 0 0 -1 2 -2 0 -1 1 0 0 -1 1 0 0 -1 3 -3 0 -1 1 0 0 -1 1 0 0 -1 3 -3 0 -1 1 0 0 -1 3 -3 0 -1 1 0 0 -1 1 0 0 -1 3 -3 0 -1 1 0 0 -1 1 0 0 -2"/>
<path stroke="red" d="M805 356l1 0 0 -1 3 -3 0 -1 1 0 0 -1 1 0 0 -1 3 -3 0 -1 1 0 0 -1 3 -3 0 -1 1 0 0 -1 1 0 0 -1 2 -2 0 -1 1 0 0 -1 1 0 0 -1 3 -3 0 -1 1 0 0 -1 1 0 0 -2 1 0 0 -1 3 -3 0 -1 1 0 0 -1 1 0 0 -1 2 -2 0 -1 1 0 0 -1 1 0 0 -1 3 -3 0 -1"/>
<path stroke="red" d="M842 310l1 0 0 -1 3 -3 0 -1 1 0 0 -1 1 0 0 -1 3 -3 0 -1 1 0 0 -1 2 -2 0 -1 3 -3 0 -1 1 0 0 -1 3 -3 0 -1 1 0 0 -1 1 0 0 -1 2 -2 0 -1 1 0 0 -1 1 0 0 -1 3 -3 0 -1 1 0 0 -1 3 -3 0 -1 1 0 0 -1 3 -3 0 -1 2 -2 0 -1 1 0 0 -1 3 -3"/>
<path stroke="red" d="M884 258l0 -1 1 0 0 -1 1 0 0 -1 2 -2 0 -1 1 0 0 -1 1 0 0 -1 3 -3 0 -1 1 0 0 -1 3 -3 0 -1 1 0 0 -1 1 0 0 -1 2 -2 0 -1 1 0 0 -1 1 0 0 -2 1 0 0 -1 1 0 0 -1 2 -2 0 -1 1 0 0 -1 1 0 0 -1 3 -3 0 -1 1 0 0 -1 3 -3 0 -1 1 0 0 -1 3 -3"/>
<path stroke="red" d="M920 213l0 -1 1 0 0 -1 1 0 0 -1 2 -2 0 -1 1 0 0 -1 1 0 0 -1 1 -1 0 -1 1 0 0 -1 2 -2 0 -1 1 0 0 -1 1 0 0 -1 3 -3 0 -1 1 0 0 -1 3 -3 0 -1 1 0 0 -1 1 0 0 -1 2 -2 0 -1 1 0 0 -1 1 0 0 -1 3 -3 0 -1 1 0 0 -1 3 -3 0 -1M70 720l290 0"/>
<path stroke="red" d="M360 720l1 -1 25 0 0 -1 13 0 0 -1 9 0 0 -1 7 0 0 -1 6 0 0 -1 5 0 1 -1 4 0 0 -1 4 0 1 -1 2 0 1 -1 3 0 0 -1 3 0 1 -1 2 0 1 -1 2 0 1 -1 2 0 1 -1 2 0 0 -1 2 0 1 -1 2 0 0 -1 2 0 0 -1 2 0 0 -1 2 0 0 -1 2 0 1 -1 1 0 1 -1 1 0 1 -1"/>
<path stroke="red" d="M475 696l1 0 1 -1 1 0 0 -1 2 0 0 -1 2 0 0 -1 1 0 1 -1 1 0 1 -1 1 0 0 -1 1 0 0 -1 2 0 0 -1 1 0 1 -1 1 0 0 -1 1 0 1 -1 1 0 0 -1 1 0 1 -1 1 0 0 -1 1 0 1 -1 1 0 0 -1 1 0 1 -1 1 0 0 -1 1 0 2 -2 1 0 0 -1 1 0 1 -1 0 -1 1 0 1 -1"/>
<path stroke="red" d="M513 671l1 0 0 -1 1 0 0 -1 1 0 2 -2 1 0 0 -1 1 0 0 -1 1 0 2 -2 1 0 0 -1 1 0 0 -1 1 0 3 -3 1 0 0 -1 1 0 0 -1 1 0 8 -8 1 0 0 -1 1 0 0 -1 1 0 0 -1 1 0 0 -1 1 0 7 -7 1 0 0 -1 1 0 0 -1 1 0 0 -1 1 0 0 -1 1 0 0 -1 1 0 0 -1 1 0"/>
<path stroke="red" d="M559 631l0 -1 1 0 0 -1 24 -24 0 -1 1 0 0 -1 1 0 0 -1 1 0 0 -1 1 0 0 -1 9 -9 0 -1 1 0 0 -1 1 0 0 -1 1 0 0 -1 1 0 0 -1 1 0 0 -1 1 0 0 -1 6 -6 0 -1 5 -5 0 -1 1 0 0 -1 1 0 0 -1 1 0 0 -1 1 0 0 -1 5 -5 0 -1 1 0 0 -1 1 0 0 -1 1 0"/>
<path stroke="red" d="M626 559l0 -1 1 0 0 -1 4 -4 0 -1 1 0 0 -1 1 0 0 -1 1 -1 0 -1 1 0 0 -1 1 0 0 -1 1 0 0 -1 1 0 0 -1 4 -4 0 -1 1 0 0 -1 1 0 0 -1 1 0 0 -1 3 -3 0 -1 1 0 0 -1 1 0 0 -1 1 0 0 -1 4 -4 0 -1 1 0 0 -1 1 0 0 -1 1 -1 0 -1 1 0 0 -1 1 0"/>
<path stroke="red" d="M660 519l0 -1 3 -3 0 -1 1 0 0 -1 1 0 0 -1 1 0 0 -1 3 -3 0 -1 1 0 0 -1 1 0 0 -1 4 -4 0 -1 1 0 0 -1 1 0 0 -1 3 -3 0 -1 1 0 0 -1 1 0 0 -2 1 0 0 -1 1 0 0 -1 3 -3 0 -1 1 0 0 -1 1 0 0 -1 1 0 0 -1 3 -3 0 -1 1 0 0 -1 1 0 0 -1 3 -3"/>
<path stroke="red" d="M698 473l0 -1 1 0 0 -1 1 0 0 -1 2 -2 0 -1 1 0 0 -1 1 0 0 -1 3 -3 0 -1 2 -2 0 -1 1 0 0 -1 1 0 0 -1 3 -3 0 -1 1 0 0 -1 1 0 0 -1 3 -3 0 -1 1 0 0 -1 3 -3 0 -1 1 0 0 -1 1 0 0 -1 3 -3 0 -1 1 0 0 -1 2 -2 0 -1 3 -3 0 -1 1 0 0 -1"/>
<path stroke="red" d="M735 426l1 0 0 -1 2 -2 0 -1 1 0 0 -1 1 0 0 -1 3 -3 0 -1 1 0 0 -1 3 -3 0 -1 1 0 0 -1 1 0 0 -1 2 -2 0 -1 1 0 0 -1 1 0 0 -1 3 -3 0 -1 1 -1 0 -1 1 0 0 -1 1 0 0 -1 2 -2 0 -1 1 0 0 -1 1 0 0 -1 2 -2 0 -1 1 0 0 -1 1 0 0 -1 3 -3"/>
<path stroke="red" d="M770 383l0 -1 1 0 0 -1 3 -3 0 -1 1 0 0 -1 3 -3 0 -1 1 0 0 -1 1 -1 0 -1 1 0 0 -1 2 -2 0 -1 1 0 0 -1 1 0 0 -1 3 -3 0 -1 1 0 0 -1 3 -3 0 -1 1 0 0 -1 3 -3 0 -1 1 0 0 -1 3 -3 0 -1 1 0 0 -1 2 -2 0 -1 1 0 0 -1 1 0 0 -2 1 0 0 -1"/>
<path stroke="red" d="M806 336l3 -3 0 -1 1 0 0 -1 3 -3 0 -1 1 0 0 -1 3 -3 0 -1 1 0 0 -1 3 -3 0 -1 1 0 0 -1 3 -3 0 -1 1 0 0 -1 2 -2 0 -1 1 0 0 -1 1 -1 0 -1 1 0 0 -1 3 -3 0 -1 1 0 0 -1 3 -3 0 -1 1 0 0 -1 3 -3 0 -1 1 0 0 -1 2 -2 0 -1 1 0 0 -1 1 0"/>
<path stroke="red" d="M847 285l0 -1 2 -2 0 -1 1 0 0 -1 1 0 0 -1 2 -2 0 -1 1 0 0 -2 1 0 0 -1 1 0 0 -1 2 -2 0 -1 1 0 0 -1 1 0 0 -1 2 -2 0 -1 1 0 0 -1 1 0 0 -1 2 -2 0 -1 1 0 0 -1 3 -3 0 -1 1 0 0 -1 3 -3 0 -1 1 0 0 -1 2 -2 0 -1 1 0 0 -1 1 -1 0 -1"/>
<path stroke="red" d="M879 242l1 0 0 -1 3 -3 0 -1 1 0 0 -1 2 -2 0 -1 1 0 0 -1 1 0 0 -1 2 -2 0 -1 1 0 0 -1 1 0 0 -1 2 -2 0 -1 1 0 0 -1 3 -3 0 -1 1 0 0 -1 3 -3 0 -1 1 0 0 -2 1 0 0 -1 3 -3 0 -1 1 0 0 -1 3 -3 0 -1 1 0 0 -1 2 -2 0 -1 1 0 0 -1 1 0"/>
<path stroke="red" d="M916 196l0 -1 2 -2 0 -1 1 0 0 -1 1 0 0 -1 2 -2 0 -1 1 0 0 -1 3 -3 0 -1 1 0 0 -2 1 0 0 -1 1 0 0 -1 2 -2 0 -1 1 0 0 -1 3 -3 0 -1 1 0 0 -1 3 -3 0 -1 1 0 0 -1 2 -2 0 -1 1 0 0 -1 1 0 0 -1 2 -2 0 -1 1 0 0 -1 1 0 0 -1 2 -2 0 -1"/>
<path stroke="red" d="M950 151l1 0 0 -1 1 -1M70 720l286 0 0 -1 25 0 1 -1 12 0 0 -1 9 0 0 -1 7 0 1 -1 4 0 1 -1 5 0 0 -1 4 0 1 -1 3 0 1 -1 3 0 1 -1 3 0 0 -1 2 0 1 -1 2 0 1 -1 2 0 1 -1 2 0 0 -1 3 0 0 -1 2 0 1 -1 1 0 1 -1 2 0 0 -1 2 0 0 -1 2 0 0 -1"/>
<path stroke="red" d="M462 699l2 0 0 -1 2 0 0 -1 2 0 0 -1 1 0 1 -1 1 0 1 -1 1 0 1 -1 1 0 0 -1 2 0 0 -1 1 0 1 -1 1 0 0 -1 2 0 0 -1 1 0 1 -1 1 0 0 -1 1 0 2 -2 1 0 0 -1 1 0 1 -1 1 0 0 -1 1 0 1 -1 1 0 0 -1 1 0 0 -1 1 0 1 -1 1 0 0 -1 1 0 2 -2 1 0"/>
<path stroke="red" d="M503 674l0 -1 1 0 0 -1 1 0 1 -1 1 0 0 -1 1 0 0 -1 1 0 5 -5 1 0 0 -1 1 0 0 -1 1 0 3 -3 1 0 0 -1 1 0 0 -1 1 0 0 -1 1 0 0 -1 1 0 4 -4 1 0 0 -1 1 0 0 -1 1 0 0 -1 1 0 0 -1 1 0 0 -1 1 0 1 -1 0 -1 1 0 0 -1 1 0 0 -1 1 0 0 -1 1 0"/>
<path stroke="red" d="M540 641l0 -1 1 0 0 -1 1 0 0 -1 1 0 0 -1 1 0 0 -1 1 0 0 -1 1 0 14 -14 0 -1 12 -12 0 -1 1 0 0 -1 1 0 0 -1 1 0 0 -1 1 0 0 -1 1 0 0 -1 1 0 0 -1 1 0 0 -1 5 -5 0 -1 1 0 0 -1 6 -6 0 -1 1 0 0 -1 1 0 0 -1 1 0 0 -1 1 0 0 -1 5 -5"/>
<path stroke="red" d="M600 577l0 -1 1 0 0 -1 1 0 0 -1 1 0 0 -1 5 -5 0 -1 1 0 0 -1 2 -2 0 -1 1 0 0 -1 1 0 0 -1 1 0 0 -1 4 -4 0 -1 1 0 0 -1 1 0 0 -1 1 0 0 -1 3 -3 0 -1 1 0 0 -1 1 0 0 -1 1 0 0 -1 3 -3 0 -1 1 0 0 -1 1 0 0 -1 1 0 0 -2 1 0 0 -1 1 0"/>
<path stroke="red" d="M635 536l0 -1 4 -4 0 -1 1 0 0 -1 1 0 0 -1 3 -3 0 -1 1 0 0 -1 1 0 0 -1 3 -3 0 -1 1 0 0 -1 1 0 0 -1 1 0 0 -1 3 -3 0 -1 1 0 0 -1 1 0 0 -1 1 -1 0 -1 1 0 0 -1 3 -3 0 -1 1 0 0 -1 1 0 0 -1 2 -2 0 -1 1 0 0 -1 1 0 0 -1 3 -3 0 -1"/>
<path stroke="red" d="M671 491l1 0 0 -1 1 0 0 -1 3 -3 0 -1 1 0 0 -1 1 0 0 -1 3 -3 0 -1 1 0 0 -2 1 0 0 -1 1 0 0 -1 3 -3 0 -1 1 0 0 -1 3 -3 0 -1 1 0 0 -1 1 0 0 -1 3 -3 0 -1 1 0 0 -1 3 -3 0 -1 1 0 0 -1 3 -3 0 -1 1 0 0 -1 1 0 0 -1 1 -1 0 -1 3 -3"/>
<path stroke="red" d="M710 443l0 -1 1 0 0 -1 3 -3 0 -1 1 0 0 -1 1 0 0 -1 2 -2 0 -1 1 0 0 -1 1 0 0 -1 2 -2 0 -1 1 0 0 -1 1 0 0 -1 2 -2 0 -1 1 0 0 -1 1 0 0 -1 2 -2 0 -1 1 0 0 -1 1 -1 0 -1 1 0 0 -1 3 -3 0 -1 1 0 0 -1 3 -3 0 -1 1 0 0 -1 2 -2 0 -1"/>
<path stroke="red" d="M743 400l1 0 0 -1 1 0 0 -1 2 -2 0 -1 1 0 0 -1 1 0 0 -1 2 -2 0 -1 1 0 0 -1 1 0 0 -1 2 -2 0 -1 1 0 0 -2 1 0 0 -1 1 0 0 -1 2 -2 0 -1 1 0 0 -1 1 0 0 -1 2 -2 0 -1 1 0 0 -1 3 -3 0 -1 1 0 0 -1 3 -3 0 -1 1 0 0 -1 2 -2 0 -1 1 0 0 -1"/>
<path stroke="red" d="M776 358l1 0 0 -1 2 -2 0 -1 1 0 0 -2 1 0 0 -1 1 0 0 -1 2 -2 0 -1 1 0 0 -1 3 -3 0 -1 1 0 0 -1 2 -2 0 -1 1 0 0 -1 1 0 0 -1 2 -2 0 -1 1 0 0 -1 3 -3 0 -1 1 0 0 -1 2 -2 0 -1 1 0 0 -1 1 0 0 -1 1 -1 0 -1 2 -2 0 -1 1 0 0 -1 3 -3"/>
<path stroke="red" d="M811 313l0 -1 1 0 0 -1 2 -2 0 -1 1 0 0 -1 1 0 0 -1 2 -2 0 -1 1 0 0 -1 3 -3 0 -1 1 0 0 -1 2 -2 0 -1 1 0 0 -1 3 -3 0 -1 1 -1 0 -1 1 0 0 -1 3 -3 0 -1 1 0 0 -1 2 -2 0 -1 1 0 0 -1 3 -3 0 -1 1 0 0 -1 2 -2 0 -1 1 0 0 -1 3 -3 0 -1"/>
<path stroke="red" d="M848 264l1 0 0 -1 2 -2 0 -1 1 0 0 -1 1 0 0 -1 1 -1 0 -1 2 -2 0 -1 1 0 0 -1 3 -3 0 -1 1 0 0 -1 2 -2 0 -1 1 0 0 -1 3 -3 0 -1 1 0 0 -1 2 -2 0 -1 1 0 0 -1 3 -3 0 -1 1 0 0 -1 2 -2 0 -1 1 0 0 -2 1 0 0 -1 1 0 0 -1 2 -2 0 -1 1 0"/>
<path stroke="red" d="M883 219l0 -1 2 -2 0 -1 1 0 0 -1 1 0 0 -1 2 -2 0 -1 1 0 0 -1 3 -3 0 -1 1 0 0 -1 2 -2 0 -1 1 0 0 -1 3 -3 0 -1 1 0 0 -1 2 -2 0 -1 1 -1 0 -1 1 0 0 -1 1 0 0 -1 2 -2 0 -1 1 0 0 -1 2 -2 0 -1 1 0 0 -1 1 0 0 -1 2 -2 0 -1 1 0 0 -1"/>
<path stroke="red" d="M916 175l2 -2 0 -1 1 0 0 -1 1 0 0 -1 2 -2 0 -1 1 0 0 -1 2 -2 0 -1 1 0 0 -1 1 0 0 -2 1 0 0 -1 2 -2 0 -1 1 0 0 -1 3 -3 0 -1 1 0 0 -1 2 -2 0 -1 1 0 0 -1 1 0 0 -1 2 -2 0 -1 1 0 0 -1 2 -2 0 -1 1 0 0 -1 1 0 0 -1 2 -2 0 -1 1 0"/>
<path stroke="red" d="M949 133l0 -1 2 -2 0 -1 1 0 0 -1M70 720l282 0 0 -1 25 0 1 -1 12 0 0 -1 9 0 0 -1 7 0 0 -1 5 0 1 -1 4 0 1 -1 3 0 1 -1 4 0 0 -1 3 0 1 -1 3 0 0 -1 3 0 0 -1 3 0 0 -1 2 0 1 -1 2 0 0 -1 2 0 1 -1 2 0 0 -1 2 0 0 -1 2 0 1 -1 1 0 1 -1"/>
<path stroke="red" d="M455 700l1 0 1 -1 1 0 1 -1 1 0 1 -1 1 0 0 -1 2 0 0 -1 1 0 1 -1 1 0 1 -1 1 0 0 -1 2 0 0 -1 1 0 1 -1 1 0 0 -1 1 0 1 -1 1 0 0 -1 2 0 0 -1 1 0 2 -2 1 0 0 -1 1 0 1 -1 1 0 0 -1 1 0 0 -1 1 0 2 -2 1 0 0 -1 1 0 2 -2 1 0 0 -1 1 0"/>
<path stroke="red" d="M496 674l0 -1 1 0 2 -2 1 0 0 -1 1 0 0 -1 1 0 2 -2 1 0 0 -1 1 0 0 -1 1 0 0 -1 1 0 7 -7 1 0 0 -1 1 0 0 -1 1 0 0 -1 1 0 0 -1 1 0 0 -1 1 0 9 -9 1 0 0 -1 1 0 0 -1 1 0 0 -1 1 0 0 -1 1 0 0 -1 1 0 0 -1 10 -10 0 -1 1 0 0 -1 1 0 0 -1"/>
<path stroke="red" d="M548 624l1 0 0 -1 1 0 0 -1 1 0 0 -1 1 0 0 -1 1 0 0 -1 1 0 0 -1 1 0 0 -1 1 0 0 -1 4 -4 0 -1 1 0 0 -1 1 0 0 -1 6 -6 0 -1 1 0 0 -1 1 0 0 -1 1 0 0 -1 1 0 0 -1 1 0 0 -1 4 -4 0 -1 1 0 0 -1 1 0 0 -1 1 0 0 -1 1 0 0 -1 3 -3 0 -1"/>
<path stroke="red" d="M584 584l4 -4 0 -1 1 0 0 -1 1 0 0 -1 1 0 0 -1 4 -4 0 -1 1 0 0 -1 1 0 0 -1 1 0 0 -1 3 -3 0 -1 1 0 0 -1 1 0 0 -1 1 0 0 -1 3 -3 0 -1 1 0 0 -1 1 0 0 -1 1 -1 0 -1 1 0 0 -1 1 0 0 -1 3 -3 0 -1 1 0 0 -1 1 0 0 -1 4 -4 0 -1 1 0 0 -1"/>
<path stroke="red" d="M622 539l1 0 0 -1 3 -3 0 -1 1 0 0 -1 1 0 0 -1 3 -3 0 -1 1 0 0 -1 1 0 0 -2 1 0 0 -1 3 -3 0 -1 1 0 0 -1 1 0 0 -1 3 -3 0 -1 1 0 0 -1 1 0 0 -1 3 -3 0 -1 1 0 0 -1 3 -3 0 -1 1 0 0 -1 1 0 0 -1 2 -2 0 -1 1 0 0 -1 1 0 0 -1 1 -1 0 -1"/>
<path stroke="red" d="M658 494l1 0 0 -1 2 -2 0 -1 1 0 0 -1 1 0 0 -1 3 -3 0 -1 1 0 0 -1 3 -3 0 -1 1 0 0 -1 3 -3 0 -1 1 0 0 -1 3 -3 0 -1 1 0 0 -1 1 0 0 -1 2 -2 0 -1 2 -2 0 -1 1 0 0 -1 2 -2 0 -1 1 0 0 -1 1 0 0 -1 2 -2 0 -1 1 0 0 -1 1 0 0 -1 2 -2"/>
<path stroke="red" d="M695 448l0 -1 1 0 0 -1 1 0 0 -1 2 -2 0 -1 1 0 0 -1 1 0 0 -1 2 -2 0 -1 1 0 0 -1 3 -3 0 -1 1 -1 0 -1 1 0 0 -1 1 0 0 -1 2 -2 0 -1 1 0 0 -1 3 -3 0 -1 1 0 0 -1 2 -2 0 -1 1 0 0 -1 1 0 0 -1 2 -2 0 -1 1 0 0 -1 3 -3 0 -1 1 0 0 -1"/>
<path stroke="red" d="M728 405l2 -2 0 -1 1 0 0 -1 1 -1 0 -1 1 0 0 -1 2 -2 0 -1 1 0 0 -1 1 0 0 -1 2 -2 0 -1 1 0 0 -1 2 -2 0 -1 1 0 0 -1 1 0 0 -1 2 -2 0 -1 1 0 0 -1 2 -2 0 -1 1 0 0 -1 1 0 0 -1 2 -2 0 -1 1 0 0 -1 2 -2 0 -1 2 -2 0 -1 1 0 0 -1 2 -2"/>
<path stroke="red" d="M761 362l0 -1 1 0 0 -1 3 -3 0 -1 1 0 0 -1 2 -2 0 -1 1 0 0 -1 3 -3 0 -1 1 0 0 -1 2 -2 0 -1 1 0 0 -1 3 -3 0 -1 1 0 0 -2 1 0 0 -1 2 -2 0 -1 1 0 0 -1 3 -3 0 -1 1 0 0 -1 2 -2 0 -1 1 0 0 -1 2 -2 0 -1 1 0 0 -1 1 0 0 -1 2 -2 0 -1"/>
<path stroke="red" d="M797 314l1 0 0 -1 2 -2 0 -1 1 0 0 -1 3 -3 0 -1 1 0 0 -2 1 0 0 -1 2 -2 0 -1 1 0 0 -1 2 -2 0 -1 1 0 0 -1 1 0 0 -1 2 -2 0 -1 1 0 0 -1 2 -2 0 -1 1 0 0 -1 3 -3 0 -1 1 0 0 -1 2 -2 0 -1 1 0 0 -1 2 -2 0 -1 1 0 0 -2 1 0 0 -1 1 0"/>
<path stroke="red" d="M831 270l0 -1 2 -2 0 -1 1 0 0 -1 2 -2 0 -1 1 0 0 -1 2 -2 0 -1 1 0 0 -1 1 0 0 -1 2 -2 0 -1 1 0 0 -1 2 -2 0 -1 1 0 0 -1 2 -2 0 -1 1 0 0 -1 1 0 0 -1 2 -2 0 -1 1 0 0 -2 1 0 0 -1 2 -2 0 -1 1 0 0 -1 2 -2 0 -1 1 0 0 -1 1 0 0 -1"/>
<path stroke="red" d="M862 228l2 -2 0 -1 1 0 0 -1 2 -2 0 -1 1 0 0 -1 2 -2 0 -1 1 0 0 -1 1 0 0 -1 2 -2 0 -1 1 0 0 -1 2 -2 0 -1 1 0 0 -2 1 0 0 -1 3 -3 0 -1 1 0 0 -1 2 -2 0 -1 1 0 0 -1 2 -2 0 -1 1 0 0 -1 2 -2 0 -1 1 0 0 -1 1 0 0 -1 2 -2 0 -1 1 0"/>
<path stroke="red" d="M896 184l0 -1 2 -2 0 -1 1 0 0 -1 2 -2 0 -1 1 0 0 -1 1 0 0 -2 1 0 0 -1 2 -2 0 -1 1 0 0 -1 2 -2 0 -1 1 0 0 -1 2 -2 0 -1 1 0 0 -1 1 0 0 -1 2 -2 0 -1 1 0 0 -1 2 -2 0 -1 1 0 0 -1 2 -2 0 -1 1 0 0 -1 1 0 0 -1 2 -2 0 -1 1 0 0 -2"/>
<path stroke="red" d="M927 141l1 0 0 -1 2 -2 0 -1 1 0 0 -1 3 -3 0 -1 1 0 0 -1 2 -2 0 -1 1 0 0 -1 2 -2 0 -1 1 0 0 -1 3 -3 0 -1 1 0 0 -1 2 -2 0 -1 1 0 0 -1 2 -2 0 -1 1 0 0 -1 1 0 0 -1"/>
</svg>
