<?xml version="1.0" standalone="yes"?>
<!DOCTYPE svg PUBLIC "-//W3C//DTD SVG 1.1//EN"
 "http://www.w3.org/Graphics/SVG/1.1/DTD/svg11.dtd">
<svg xmlns="http://www.w3.org/2000/svg" version="1.1"
  width="100%" height="100%" viewBox="0 0 1024 768"
  style="fill: none; font-family: Helvetica;
 font: Helvetica;
">

<!-- Creator: NGspice -->

<rect x="0" y="0" width="1024" height="768" fill="black" stroke="none"/>
<text stroke="none" fill="white" font-size="16" x="358" y="752">
v-sweep
</text>
<text stroke="none" fill="white" font-size="16" x="10" y="16">
dc1: ** sch_path: /home/prime/inv_test/inv_test.sch
</text>
<path stroke="white" d="M50 720l0 -670"/>
<text stroke="none" fill="white" font-size="16" x="35" y="728">
0.0
</text>
<path stroke="white" stroke-dasharray="1,2" d="M142 720l0 -670"/>
<text stroke="none" fill="white" font-size="16" x="127" y="728">
0.2
</text>
<path stroke="white" stroke-dasharray="1,2" d="M234 720l0 -670"/>
<text stroke="none" fill="white" font-size="16" x="219" y="728">
0.4
</text>
<path stroke="white" stroke-dasharray="1,2" d="M326 720l0 -670"/>
<text stroke="none" fill="white" font-size="16" x="311" y="728">
0.6
</text>
<path stroke="white" stroke-dasharray="1,2" d="M418 720l0 -670"/>
<text stroke="none" fill="white" font-size="16" x="403" y="728">
0.8
</text>
<path stroke="white" stroke-dasharray="1,2" d="M510 720l0 -670"/>
<text stroke="none" fill="white" font-size="16" x="495" y="728">
1.0
</text>
<path stroke="white" stroke-dasharray="1,2" d="M602 720l0 -670"/>
<text stroke="none" fill="white" font-size="16" x="587" y="728">
1.2
</text>
<path stroke="white" stroke-dasharray="1,2" d="M694 720l0 -670"/>
<text stroke="none" fill="white" font-size="16" x="679" y="728">
1.4
</text>
<path stroke="white" stroke-dasharray="1,2" d="M786 720l0 -670"/>
<text stroke="none" fill="white" font-size="16" x="771" y="728">
1.6
</text>
<path stroke="white" stroke-dasharray="1,2" d="M878 720l0 -670"/>
<text stroke="none" fill="white" font-size="16" x="863" y="728">
1.8
</text>
<path stroke="white" stroke-dasharray="1,2" d="M970 720l0 -670"/>
<text stroke="none" fill="white" font-size="16" x="955" y="728">
2.0
</text>
<text stroke="none" fill="white" font-size="16" x="614" y="752">
V
</text>
<path stroke="white" d="M50 720l920 0"/>
<text stroke="none" fill="white" font-size="16" x="18" y="728">
0.0
</text>
<path stroke="white" stroke-dasharray="1,2" d="M50 653l920 0"/>
<text stroke="none" fill="white" font-size="16" x="18" y="661">
0.2
</text>
<path stroke="white" stroke-dasharray="1,2" d="M50 586l920 0"/>
<text stroke="none" fill="white" font-size="16" x="18" y="594">
0.4
</text>
<path stroke="white" stroke-dasharray="1,2" d="M50 519l920 0"/>
<text stroke="none" fill="white" font-size="16" x="18" y="527">
0.6
</text>
<path stroke="white" stroke-dasharray="1,2" d="M50 452l920 0"/>
<text stroke="none" fill="white" font-size="16" x="18" y="460">
0.8
</text>
<path stroke="white" stroke-dasharray="1,2" d="M50 385l920 0"/>
<text stroke="none" fill="white" font-size="16" x="18" y="393">
1.0
</text>
<path stroke="white" stroke-dasharray="1,2" d="M50 318l920 0"/>
<text stroke="none" fill="white" font-size="16" x="18" y="326">
1.2
</text>
<path stroke="white" stroke-dasharray="1,2" d="M50 251l920 0"/>
<text stroke="none" fill="white" font-size="16" x="18" y="259">
1.4
</text>
<path stroke="white" stroke-dasharray="1,2" d="M50 184l920 0"/>
<text stroke="none" fill="white" font-size="16" x="18" y="192">
1.6
</text>
<path stroke="white" stroke-dasharray="1,2" d="M50 117l920 0"/>
<text stroke="none" fill="white" font-size="16" x="18" y="125">
1.8
</text>
<path stroke="white" stroke-dasharray="1,2" d="M50 50l920 0"/>
<text stroke="none" fill="white" font-size="16" x="18" y="58">
2.0
</text>
<text stroke="none" fill="white" font-size="16" x="10" y="32">
V
</text>
<path stroke="red" d="M460 23l46 0"/>
<text stroke="none" fill="white" font-size="16" x="516" y="32">
vin
</text>
<path stroke="red" d="M50 720l1 -1 1 0 0 -1 1 0 1 -1 1 0 0 -1 1 0 0 -1 1 0 1 -1 1 0 0 -1 1 0 1 -1 1 0 0 -1 1 0 0 -1 1 0 1 -1 1 0 0 -1 1 0 0 -1 1 0 1 -1 1 0 0 -1 1 0 1 -1 1 0 0 -1 1 0 0 -1 1 0 1 -1 1 0 0 -1 1 0 2 -2 1 0 0 -1 1 0 1 -1 1 0 0 -1"/>
<path stroke="red" d="M84 695l1 0 0 -1 1 0 1 -1 1 0 0 -1 1 0 2 -2 1 0 0 -1 1 0 1 -1 1 0 0 -1 1 0 0 -1 1 0 0 -1 1 0 1 -1 1 0 0 -1 1 0 2 -2 1 0 0 -1 1 0 1 -1 1 0 0 -1 1 0 0 -1 1 0 1 -1 1 0 0 -1 1 0 2 -2 1 0 0 -1 1 0 1 -1 1 0 0 -1 1 0 0 -1 1 0 1 -1"/>
<path stroke="red" d="M121 668l1 0 0 -1 1 0 1 -1 1 0 0 -1 1 0 0 -1 1 0 1 -1 1 0 0 -1 1 0 2 -2 1 0 0 -1 1 0 1 -1 1 0 0 -1 1 0 0 -1 1 0 1 -1 1 0 0 -1 1 0 2 -2 1 0 0 -1 1 0 1 -1 1 0 0 -1 1 0 0 -1 1 0 1 -1 1 0 0 -1 1 0 1 -1 1 0 0 -1 1 0 0 -1 1 0"/>
<path stroke="red" d="M156 643l1 -1 1 0 0 -1 1 0 0 -1 1 0 1 -1 1 0 0 -1 1 0 1 -1 1 0 0 -1 1 0 0 -1 1 0 1 -1 1 0 0 -1 1 0 2 -2 1 0 0 -1 1 0 1 -1 1 0 0 -1 1 0 0 -1 1 0 1 -1 1 0 0 -1 1 0 2 -2 1 0 0 -1 1 0 1 -1 1 0 0 -1 1 0 0 -1 1 0 0 -1 1 0 1 -1"/>
<path stroke="red" d="M191 617l1 0 0 -1 1 0 2 -2 1 0 0 -1 1 0 1 -1 1 0 0 -1 1 0 0 -1 1 0 1 -1 1 0 0 -1 1 0 2 -2 1 0 0 -1 1 0 1 -1 1 0 0 -1 1 0 0 -1 1 0 1 -1 1 0 0 -1 1 0 1 -1 1 0 0 -1 1 0 0 -1 1 0 1 -1 1 0 0 -1 1 0 2 -2 1 0 0 -1 1 0 1 -1 1 0"/>
<path stroke="red" d="M228 591l0 -1 1 0 0 -1 1 0 1 -1 1 0 0 -1 1 0 2 -2 1 0 0 -1 1 0 1 -1 1 0 0 -1 1 0 0 -1 1 0 1 -1 1 0 0 -1 1 0 1 -1 1 0 0 -1 1 0 0 -1 1 0 1 -1 1 0 0 -1 1 0 0 -1 1 0 1 -1 1 0 0 -1 1 0 1 -1 1 0 0 -1 1 0 0 -1 1 0 1 -1 1 0 0 -1"/>
<path stroke="red" d="M261 566l1 0 2 -2 1 0 0 -1 1 0 1 -1 1 0 0 -1 1 0 0 -1 1 0 1 -1 1 0 0 -1 1 0 2 -2 1 0 0 -1 1 0 1 -1 1 0 0 -1 1 0 0 -1 1 0 0 -1 1 0 1 -1 1 0 0 -1 1 0 2 -2 1 0 0 -1 1 0 1 -1 1 0 0 -1 1 0 0 -1 1 0 1 -1 1 0 0 -1 1 0 2 -2 1 0"/>
<path stroke="red" d="M299 539l0 -1 1 0 1 -1 1 0 0 -1 1 0 0 -1 1 0 1 -1 1 0 0 -1 1 0 1 -1 1 0 0 -1 1 0 0 -1 1 0 1 -1 1 0 0 -1 1 0 2 -2 1 0 0 -1 1 0 1 -1 1 0 0 -1 1 0 0 -1 1 0 1 -1 1 0 0 -1 1 0 2 -2 1 0 0 -1 1 0 1 -1 1 0 0 -1 1 0 0 -1 1 0 1 -1"/>
<path stroke="red" d="M334 513l1 0 0 -1 1 0 1 -1 1 0 0 -1 1 0 0 -1 1 0 1 -1 1 0 0 -1 1 0 0 -1 1 0 1 -1 1 0 0 -1 1 0 1 -1 1 0 0 -1 1 0 0 -1 1 0 1 -1 1 0 0 -1 1 0 2 -2 1 0 0 -1 1 0 1 -1 1 0 0 -1 1 0 0 -1 1 0 1 -1 1 0 0 -1 1 0 2 -2 1 0 0 -1 1 0"/>
<path stroke="red" d="M369 488l1 -1 1 0 0 -1 1 0 0 -1 1 0 0 -1 1 0 1 -1 1 0 0 -1 1 0 2 -2 1 0 0 -1 1 0 1 -1 1 0 0 -1 1 0 0 -1 1 0 1 -1 1 0 0 -1 1 0 2 -2 1 0 0 -1 1 0 1 -1 1 0 0 -1 1 0 0 -1 1 0 1 -1 1 0 0 -1 1 0 1 -1 1 0 0 -1 1 0 0 -1 1 0 1 -1"/>
<path stroke="red" d="M404 462l1 0 0 -1 1 0 2 -2 1 0 0 -1 1 0 1 -1 1 0 0 -1 1 0 0 -1 1 0 1 -1 1 0 0 -1 1 0 2 -2 1 0 0 -1 1 0 1 -1 1 0 0 -1 1 0 0 -1 1 0 1 -1 1 0 0 -1 1 0 1 -1 1 0 0 -1 1 0 0 -1 1 0 1 -1 1 0 0 -1 1 0 0 -1 1 0 1 -1 1 0 0 -1 1 0"/>
<path stroke="red" d="M439 437l1 -1 1 0 0 -1 1 0 0 -1 1 0 1 -1 1 0 0 -1 1 0 2 -2 1 0 0 -1 1 0 1 -1 1 0 0 -1 1 0 0 -1 1 0 1 -1 1 0 0 -1 1 0 2 -2 1 0 0 -1 1 0 1 -1 1 0 0 -1 1 0 0 -1 1 0 0 -1 1 0 1 -1 1 0 0 -1 1 0 2 -2 1 0 0 -1 1 0 1 -1 1 0 0 -1"/>
<path stroke="red" d="M475 410l1 0 0 -1 1 0 1 -1 1 0 0 -1 1 0 2 -2 1 0 0 -1 1 0 1 -1 1 0 0 -1 1 0 0 -1 1 0 1 -1 1 0 0 -1 1 0 1 -1 1 0 0 -1 1 0 0 -1 1 0 1 -1 1 0 0 -1 1 0 2 -2 1 0 0 -1 1 0 1 -1 1 0 0 -1 1 0 0 -1 1 0 1 -1 1 0 0 -1 1 0 2 -2 1 0"/>
<path stroke="red" d="M512 384l0 -1 1 0 1 -1 1 0 0 -1 1 0 0 -1 1 0 1 -1 1 0 0 -1 1 0 2 -2 1 0 0 -1 1 0 1 -1 1 0 0 -1 1 0 0 -1 1 0 1 -1 1 0 0 -1 1 0 1 -1 1 0 0 -1 1 0 0 -1 1 0 1 -1 1 0 0 -1 1 0 2 -2 1 0 0 -1 1 0 1 -1 1 0 0 -1 1 0 0 -1 1 0 1 -1"/>
<path stroke="red" d="M547 358l1 0 0 -1 1 0 2 -2 1 0 0 -1 1 0 1 -1 1 0 0 -1 1 0 0 -1 1 0 0 -1 1 0 1 -1 1 0 0 -1 1 0 2 -2 1 0 0 -1 1 0 1 -1 1 0 0 -1 1 0 0 -1 1 0 1 -1 1 0 0 -1 1 0 2 -2 1 0 0 -1 1 0 1 -1 1 0 0 -1 1 0 0 -1 1 0 1 -1 1 0 0 -1 1 0"/>
<path stroke="red" d="M583 332l1 -1 1 0 0 -1 1 0 0 -1 1 0 1 -1 1 0 0 -1 1 0 0 -1 1 0 1 -1 1 0 0 -1 1 0 1 -1 1 0 0 -1 1 0 0 -1 1 0 1 -1 1 0 0 -1 1 0 2 -2 1 0 0 -1 1 0 1 -1 1 0 0 -1 1 0 0 -1 1 0 1 -1 1 0 0 -1 1 0 2 -2 1 0 0 -1 1 0 1 -1 1 0 0 -1"/>
<path stroke="red" d="M618 306l1 0 0 -1 1 0 1 -1 1 0 0 -1 1 0 1 -1 1 0 0 -1 1 0 0 -1 1 0 1 -1 1 0 0 -1 1 0 2 -2 1 0 0 -1 1 0 1 -1 1 0 0 -1 1 0 0 -1 1 0 1 -1 1 0 0 -1 1 0 2 -2 1 0 0 -1 1 0 1 -1 1 0 0 -1 1 0 0 -1 1 0 0 -1 1 0 1 -1 1 0 0 -1 1 0"/>
<path stroke="red" d="M653 281l2 -2 1 0 0 -1 1 0 1 -1 1 0 0 -1 1 0 0 -1 1 0 1 -1 1 0 0 -1 1 0 2 -2 1 0 0 -1 1 0 1 -1 1 0 0 -1 1 0 0 -1 1 0 1 -1 1 0 0 -1 1 0 1 -1 1 0 0 -1 1 0 0 -1 1 0 1 -1 1 0 0 -1 1 0 0 -1 1 0 1 -1 1 0 0 -1 1 0 1 -1 1 0 0 -1"/>
<path stroke="red" d="M688 255l1 0 0 -1 1 0 1 -1 1 0 0 -1 1 0 2 -2 1 0 0 -1 1 0 1 -1 1 0 0 -1 1 0 0 -1 1 0 1 -1 1 0 0 -1 1 0 2 -2 1 0 0 -1 1 0 1 -1 1 0 0 -1 1 0 0 -1 1 0 1 -1 1 0 0 -1 1 0 1 -1 1 0 0 -1 1 0 0 -1 1 0 1 -1 1 0 0 -1 1 0 2 -2 1 0"/>
<path stroke="red" d="M725 229l0 -1 1 0 1 -1 1 0 0 -1 1 0 0 -1 1 0 1 -1 1 0 0 -1 1 0 2 -2 1 0 0 -1 1 0 1 -1 1 0 0 -1 1 0 0 -1 1 0 0 -1 1 0 1 -1 1 0 0 -1 1 0 2 -2 1 0 0 -1 1 0 1 -1 1 0 0 -1 1 0 0 -1 1 0 1 -1 1 0 0 -1 1 0 2 -2 1 0 0 -1 1 0 1 -1"/>
<path stroke="red" d="M761 202l1 0 0 -1 1 0 0 -1 1 0 1 -1 1 0 0 -1 1 0 1 -1 1 0 0 -1 1 0 0 -1 1 0 1 -1 1 0 0 -1 1 0 0 -1 1 0 1 -1 1 0 0 -1 1 0 1 -1 1 0 0 -1 1 0 0 -1 1 0 1 -1 1 0 0 -1 1 0 2 -2 1 0 0 -1 1 0 1 -1 1 0 0 -1 1 0 0 -1 1 0 1 -1 1 0"/>
<path stroke="red" d="M795 178l0 -1 1 0 2 -2 1 0 0 -1 1 0 1 -1 1 0 0 -1 1 0 0 -1 1 0 1 -1 1 0 0 -1 1 0 1 -1 1 0 0 -1 1 0 0 -1 1 0 1 -1 1 0 0 -1 1 0 2 -2 1 0 0 -1 1 0 1 -1 1 0 0 -1 1 0 0 -1 1 0 1 -1 1 0 0 -1 1 0 2 -2 1 0 0 -1 1 0 1 -1 1 0 0 -1"/>
<path stroke="red" d="M831 151l1 0 0 -1 1 0 0 -1 1 0 1 -1 1 0 0 -1 1 0 2 -2 1 0 0 -1 1 0 1 -1 1 0 0 -1 1 0 0 -1 1 0 1 -1 1 0 0 -1 1 0 2 -2 1 0 0 -1 1 0 1 -1 1 0 0 -1 1 0 0 -1 1 0 1 -1 1 0 0 -1 1 0 1 -1 1 0 0 -1 1 0 0 -1 1 0 1 -1 1 0 0 -1 1 0"/>
<path stroke="red" d="M866 126l0 -1 1 0 1 -1 1 0 0 -1 1 0 1 -1 1 0 0 -1 1 0 0 -1 1 0 1 -1 1 0 0 -1 1 0 2 -2 1 0 0 -1 1 0 1 -1 1 0 0 -1 1 0 0 -1 1 0 1 -1 1 0 0 -1 1 0 2 -2 1 0 0 -1 1 0 1 -1 1 0 0 -1 1 0 0 -1 1 0 1 -1 1 0 0 -1 1 0 1 -1 1 0 0 -1"/>
<path stroke="red" d="M901 100l1 0 0 -1 1 0 1 -1 1 0 0 -1 1 0 2 -2 1 0 0 -1 1 0 1 -1 1 0 0 -1 1 0 0 -1 1 0 1 -1 1 0 0 -1 1 0 2 -2 1 0 0 -1 1 0 1 -1 1 0 0 -1 1 0 0 -1 1 0 0 -1 1 0 1 -1 1 0 0 -1 1 0 2 -2 1 0 0 -1 1 0 1 -1 1 0 0 -1 1 0 0 -1 1 0"/>
<path stroke="red" d="M937 74l1 -1 1 0 0 -1 1 0 2 -2 1 0 0 -1 1 0 1 -1 1 0 0 -1 1 0 0 -1 1 0 1 -1 1 0 0 -1 1 0 1 -1 1 0 0 -1 1 0 0 -1 1 0 1 -1 1 0 0 -1 1 0 0 -1 1 0 1 -1 1 0 0 -1 1 0 1 -1 1 0 0 -1 1 0 0 -1 1 0 1 -1 1 0 0 -1 1 0 1 -1"/>
<path stroke="blue" d="M50 23l46 0"/>
<text stroke="none" fill="white" font-size="16" x="106" y="32">
vout
</text>
<path stroke="blue" d="M50 117l254 0M304 118l0 -1M304 118l21 0M325 119l0 -1M325 119l10 0M335 120l0 -1M335 120l6 0 1 1 5 0M347 122l0 -1M347 122l4 0M351 123l0 -1M351 123l3 0 1 1 2 0 1 1 2 0 1 1 1 0 1 1 2 0M365 128l0 -1M365 128l1 0 1 1 1 0 1 1 1 0"/>
<path stroke="blue" d="M370 130l1 1 1 0M372 132l0 -1M372 132l1 0M373 133l0 -1M373 133l1 0 1 1 1 0M376 135l0 -1M376 135l1 0 4 4 1 0M382 140l0 -1M382 140l1 0M383 141l0 -1M383 141l1 0M384 142l0 -1M384 142l2 2M386 145l0 -1M386 145l1 0M387 146l0 -1"/>
<path stroke="blue" d="M387 146l1 0M388 147l0 -1M388 147l1 1M389 149l0 -1M389 149l1 0M390 150l0 -1M390 150l1 1M391 152l0 -1M391 152l1 0M392 153l0 -1M392 153l1 1M393 155l0 -1M393 155l1 0M394 156l0 -1M394 156l1 1M395 159l0 -2M395 159l1 1M396 161l0 -1"/>
<path stroke="blue" d="M396 161l1 0M397 162l0 -1M397 162l1 1M398 164l0 -1M398 164l1 2M399 167l0 -1M399 167l1 1M400 169l0 -1M400 169l1 1M401 173l0 -3M401 173l1 1M402 175l0 -1M402 175l1 2M403 178l0 -1M403 178l1 2M404 181l0 -1M404 181l1 2M405 184l0 -1"/>
<path stroke="blue" d="M405 184l1 2M406 188l0 -2M406 188l1 2M407 194l0 -4M407 194l1 2M408 198l0 -2M408 198l1 3M409 203l0 -2M409 203l1 3M410 209l0 -3M410 209l1 3M411 215l0 -3M411 215l1 3M412 225l0 -7M412 225l1 4M413 233l0 -4M413 233l1 3M414 240l0 -4"/>
<path stroke="blue" d="M414 240l1 4M415 248l0 -4M415 248l1 4M416 257l0 -5M416 257l1 4M417 265l0 -4M417 265l1 4M418 278l0 -9M418 278l1 4M419 286l0 -4M419 286l1 5M420 295l0 -4M420 295l1 5M421 304l0 -4M421 304l1 4M422 313l0 -5M422 313l1 4M423 321l0 -4"/>
<path stroke="blue" d="M423 321l1 5M424 335l0 -9M424 335l1 4M425 343l0 -4M425 343l1 5M426 352l0 -4M426 352l1 5M427 361l0 -4M427 361l1 4M428 370l0 -5M428 370l1 4M429 379l0 -5M429 379l1 4M430 392l0 -9M430 392l1 4M431 400l0 -4M431 400l1 5M432 409l0 -4"/>
<path stroke="blue" d="M432 409l1 4M433 418l0 -5M433 418l1 4M434 426l0 -4M434 426l1 5M435 439l0 -8M435 439l1 4M436 448l0 -5M436 448l1 4M437 456l0 -4M437 456l1 4M438 465l0 -5M438 465l1 4M439 473l0 -4M439 473l1 4M440 481l0 -4M440 481l1 5M441 494l0 -8"/>
<path stroke="blue" d="M441 494l1 4M442 502l0 -4M442 502l1 4M443 510l0 -4M443 510l1 5M444 519l0 -4M444 519l1 4M445 527l0 -4M445 527l1 4M446 535l0 -4M446 535l1 4M447 547l0 -8M447 547l1 4M448 555l0 -4M448 555l1 4M449 563l0 -4M449 563l1 3M450 570l0 -4"/>
<path stroke="blue" d="M450 570l1 4M451 578l0 -4M451 578l1 4M452 586l0 -4M452 586l1 3M453 597l0 -8M453 597l1 4M454 604l0 -3M454 604l1 4M455 611l0 -3M455 611l1 4M456 618l0 -3M456 618l1 4M457 625l0 -3M457 625l1 4M458 635l0 -6M458 635l1 3M459 641l0 -3"/>
<path stroke="blue" d="M459 641l1 3M460 647l0 -3M460 647l1 3M461 653l0 -3M461 653l1 2M462 658l0 -3M462 658l1 2M463 662l0 -2M463 662l1 2M464 668l0 -4M464 668l1 2M465 671l0 -1M465 671l1 2M466 674l0 -1M466 674l1 2M467 677l0 -1M467 677l1 1M468 679l0 -1"/>
<path stroke="blue" d="M468 679l1 1M469 681l0 -1M469 681l1 1M470 684l0 -2M470 684l2 2M472 687l0 -1M472 687l1 0M473 688l0 -1M473 688l3 3M476 692l0 -1M476 692l1 0M477 693l0 -1M477 693l1 0M478 694l0 -1M478 694l1 0 3 3 1 0M483 698l0 -1M483 698l1 0"/>
<path stroke="blue" d="M484 698l1 1 1 0M486 700l0 -1M486 700l1 0 1 1 1 0 1 1 1 0 1 1 1 0M493 704l0 -1M493 704l2 0 1 1 2 0 1 1 2 0M501 707l0 -1M501 707l3 0M504 708l0 -1M504 708l3 0M507 709l0 -1M507 709l3 0 1 1 4 0M515 711l0 -1M515 711l4 0M519 712l0 -1"/>
<path stroke="blue" d="M519 712l5 0M524 713l0 -1M524 713l6 0M530 714l0 -1M530 714l7 0M537 715l0 -1M537 715l7 0 1 1 10 0M555 717l0 -1M555 717l12 0 1 1 18 0M586 719l0 -1M586 719l35 0 1 1 348 0"/>
</svg>
