<?xml version="1.0" standalone="yes"?>
<!DOCTYPE svg PUBLIC "-//W3C//DTD SVG 1.1//EN"
 "http://www.w3.org/Graphics/SVG/1.1/DTD/svg11.dtd">
<svg xmlns="http://www.w3.org/2000/svg" version="1.1"
  width="100%" height="100%" viewBox="0 0 1024 768"
  style="fill: none; font-family: Helvetica;
 font: Helvetica;
">

<!-- Creator: NGspice -->

<rect x="0" y="0" width="1024" height="768" fill="black" stroke="none"/>
<text stroke="none" fill="white" font-size="16" x="358" y="752">
time
</text>
<text stroke="none" fill="white" font-size="16" x="10" y="16">
tran1: ** sch_path: /home/prime/cmos-inverter-design/schematics/inv.sch
</text>
<path stroke="white" d="M60 720l0 -672"/>
<text stroke="none" fill="white" font-size="16" x="45" y="728">
0.0
</text>
<path stroke="white" stroke-dasharray="1,2" d="M150 720l0 -672"/>
<text stroke="none" fill="white" font-size="16" x="135" y="728">
1.0
</text>
<path stroke="white" stroke-dasharray="1,2" d="M240 720l0 -672"/>
<text stroke="none" fill="white" font-size="16" x="225" y="728">
2.0
</text>
<path stroke="white" stroke-dasharray="1,2" d="M330 720l0 -672"/>
<text stroke="none" fill="white" font-size="16" x="315" y="728">
3.0
</text>
<path stroke="white" stroke-dasharray="1,2" d="M420 720l0 -672"/>
<text stroke="none" fill="white" font-size="16" x="405" y="728">
4.0
</text>
<path stroke="white" stroke-dasharray="1,2" d="M510 720l0 -672"/>
<text stroke="none" fill="white" font-size="16" x="495" y="728">
5.0
</text>
<path stroke="white" stroke-dasharray="1,2" d="M600 720l0 -672"/>
<text stroke="none" fill="white" font-size="16" x="585" y="728">
6.0
</text>
<path stroke="white" stroke-dasharray="1,2" d="M690 720l0 -672"/>
<text stroke="none" fill="white" font-size="16" x="675" y="728">
7.0
</text>
<path stroke="white" stroke-dasharray="1,2" d="M780 720l0 -672"/>
<text stroke="none" fill="white" font-size="16" x="765" y="728">
8.0
</text>
<path stroke="white" stroke-dasharray="1,2" d="M870 720l0 -672"/>
<text stroke="none" fill="white" font-size="16" x="855" y="728">
9.0
</text>
<path stroke="white" stroke-dasharray="1,2" d="M960 720l0 -672"/>
<text stroke="none" fill="white" font-size="16" x="940" y="728">
10.0
</text>
<text stroke="none" fill="white" font-size="16" x="614" y="752">
ns
</text>
<path stroke="white" stroke-dasharray="1,2" d="M60 720l900 0"/>
<text stroke="none" fill="white" font-size="16" x="8" y="728">
-50.0
</text>
<path stroke="white" stroke-dasharray="1,2" d="M60 636l900 0"/>
<text stroke="none" fill="white" font-size="16" x="8" y="644">
-40.0
</text>
<path stroke="white" stroke-dasharray="1,2" d="M60 552l900 0"/>
<text stroke="none" fill="white" font-size="16" x="8" y="560">
-30.0
</text>
<path stroke="white" stroke-dasharray="1,2" d="M60 468l900 0"/>
<text stroke="none" fill="white" font-size="16" x="8" y="476">
-20.0
</text>
<path stroke="white" stroke-dasharray="1,2" d="M60 384l900 0"/>
<text stroke="none" fill="white" font-size="16" x="8" y="392">
-10.0
</text>
<path stroke="white" d="M60 300l900 0"/>
<text stroke="none" fill="white" font-size="16" x="28" y="308">
0.0
</text>
<path stroke="white" stroke-dasharray="1,2" d="M60 216l900 0"/>
<text stroke="none" fill="white" font-size="16" x="18" y="224">
10.0
</text>
<path stroke="white" stroke-dasharray="1,2" d="M60 132l900 0"/>
<text stroke="none" fill="white" font-size="16" x="18" y="140">
20.0
</text>
<path stroke="white" stroke-dasharray="1,2" d="M60 48l900 0"/>
<text stroke="none" fill="white" font-size="16" x="18" y="56">
30.0
</text>
<text stroke="none" fill="white" font-size="16" x="10" y="32">
uA
</text>
<path stroke="red" d="M450 23l45 0"/>
<text stroke="none" fill="white" font-size="16" x="505" y="32">
vdd#branch
</text>
<path stroke="red" d="M60 300l0 -127 1 -12 0 -8 1 -1 2 0 2 1 2 0 2 9 1 57 2 159 2 215 2 -15 2 -406 1 131 2 -126 2 121 2 -116 1 111M87 307l0 -14M87 307l1 -8M88 300l0 -1M88 300l269 0M357 367l0 -67M357 367l1 -5 0 -1 2 1 2 0 1 5 2 9 2 36 2 88 2 136"/>
<path stroke="red" d="M371 636l1 33 2 9 2 -86 2 -77 2 -108 1 88 2 -88 1 87 0 -162 1 -19 0 -11 2 -3 2 2 1 -2 2 2 2 -2 2 2 2 -2 1 2 2 -2 2 2 2 -2 2 2 1 -2 2 2 2 -2 2 2 2 -2 1 2 2 -2 2 2 2 -2 2 2 1 -2 2 2 2 -2 2 2 2 -2 1 2 2 -2 2 2 2 -2 2 2 1 -2"/>
<path stroke="red" d="M444 299l2 2 2 -2 2 2 2 -2 1 2 2 -2 2 2 2 -2 2 2 1 -2 2 2 2 -2 2 2 2 -2 1 2 2 -2 2 2 2 -1 177 0 0 -117 1 -21 0 -10 2 -1 2 2 1 -1 2 2 2 13 2 79 2 178 1 200 2 -104 2 -390 2 192 2 -153 1 131 2 -117 1 104M681 308l0 -21M681 308l1 -9"/>
<path stroke="red" d="M682 300l0 -1M682 300l269 0M951 367l0 -67M951 367l1 -5 0 -1 2 1 2 0 1 5 2 9 1 13"/>
</svg>
