<?xml version="1.0" standalone="yes"?>
<!DOCTYPE svg PUBLIC "-//W3C//DTD SVG 1.1//EN"
 "http://www.w3.org/Graphics/SVG/1.1/DTD/svg11.dtd">
<svg xmlns="http://www.w3.org/2000/svg" version="1.1"
  width="100%" height="100%" viewBox="0 0 1024 768"
  style="fill: none; font-family: Helvetica;
 font: Helvetica;
">

<!-- Creator: NGspice -->

<rect x="0" y="0" width="1024" height="768" fill="black" stroke="none"/>
<text stroke="none" fill="white" font-size="16" x="358" y="752">
time
</text>
<text stroke="none" fill="white" font-size="16" x="10" y="16">
tran1: ** sch_path: /home/prime/cmos-inverter-design/schematics/inv.sch
</text>
<path stroke="white" d="M50 720l0 -671"/>
<text stroke="none" fill="white" font-size="16" x="35" y="728">
0.0
</text>
<path stroke="white" stroke-dasharray="1,2" d="M142 720l0 -671"/>
<text stroke="none" fill="white" font-size="16" x="127" y="728">
1.0
</text>
<path stroke="white" stroke-dasharray="1,2" d="M234 720l0 -671"/>
<text stroke="none" fill="white" font-size="16" x="219" y="728">
2.0
</text>
<path stroke="white" stroke-dasharray="1,2" d="M326 720l0 -671"/>
<text stroke="none" fill="white" font-size="16" x="311" y="728">
3.0
</text>
<path stroke="white" stroke-dasharray="1,2" d="M418 720l0 -671"/>
<text stroke="none" fill="white" font-size="16" x="403" y="728">
4.0
</text>
<path stroke="white" stroke-dasharray="1,2" d="M510 720l0 -671"/>
<text stroke="none" fill="white" font-size="16" x="495" y="728">
5.0
</text>
<path stroke="white" stroke-dasharray="1,2" d="M602 720l0 -671"/>
<text stroke="none" fill="white" font-size="16" x="587" y="728">
6.0
</text>
<path stroke="white" stroke-dasharray="1,2" d="M694 720l0 -671"/>
<text stroke="none" fill="white" font-size="16" x="679" y="728">
7.0
</text>
<path stroke="white" stroke-dasharray="1,2" d="M786 720l0 -671"/>
<text stroke="none" fill="white" font-size="16" x="771" y="728">
8.0
</text>
<path stroke="white" stroke-dasharray="1,2" d="M878 720l0 -671"/>
<text stroke="none" fill="white" font-size="16" x="863" y="728">
9.0
</text>
<path stroke="white" stroke-dasharray="1,2" d="M970 720l0 -671"/>
<text stroke="none" fill="white" font-size="16" x="950" y="728">
10.0
</text>
<text stroke="none" fill="white" font-size="16" x="614" y="752">
ns
</text>
<path stroke="white" stroke-dasharray="1,2" d="M50 720l920 0"/>
<text stroke="none" fill="white" font-size="16" x="8" y="728">
-0.2
</text>
<path stroke="white" d="M50 659l920 0"/>
<text stroke="none" fill="white" font-size="16" x="18" y="667">
0.0
</text>
<path stroke="white" stroke-dasharray="1,2" d="M50 598l920 0"/>
<text stroke="none" fill="white" font-size="16" x="18" y="606">
0.2
</text>
<path stroke="white" stroke-dasharray="1,2" d="M50 537l920 0"/>
<text stroke="none" fill="white" font-size="16" x="18" y="545">
0.4
</text>
<path stroke="white" stroke-dasharray="1,2" d="M50 476l920 0"/>
<text stroke="none" fill="white" font-size="16" x="18" y="484">
0.6
</text>
<path stroke="white" stroke-dasharray="1,2" d="M50 415l920 0"/>
<text stroke="none" fill="white" font-size="16" x="18" y="423">
0.8
</text>
<path stroke="white" stroke-dasharray="1,2" d="M50 354l920 0"/>
<text stroke="none" fill="white" font-size="16" x="18" y="362">
1.0
</text>
<path stroke="white" stroke-dasharray="1,2" d="M50 293l920 0"/>
<text stroke="none" fill="white" font-size="16" x="18" y="301">
1.2
</text>
<path stroke="white" stroke-dasharray="1,2" d="M50 232l920 0"/>
<text stroke="none" fill="white" font-size="16" x="18" y="240">
1.4
</text>
<path stroke="white" stroke-dasharray="1,2" d="M50 171l920 0"/>
<text stroke="none" fill="white" font-size="16" x="18" y="179">
1.6
</text>
<path stroke="white" stroke-dasharray="1,2" d="M50 110l920 0"/>
<text stroke="none" fill="white" font-size="16" x="18" y="118">
1.8
</text>
<path stroke="white" stroke-dasharray="1,2" d="M50 49l920 0"/>
<text stroke="none" fill="white" font-size="16" x="18" y="57">
2.0
</text>
<text stroke="none" fill="white" font-size="16" x="10" y="32">
     
</text>
<path stroke="red" d="M460 23l46 0"/>
<text stroke="none" fill="white" font-size="16" x="516" y="32">
vdd#branch*1000
</text>
<path stroke="red" d="M50 659l0 -5 10 0 2 2 1 6 2 8 2 -1 2 -15 2 5 2 -4 1 4 2 -4 2 4 276 0M354 661l0 -2M354 661l6 0 4 2 2 3 1 5 4 2 4 -6 2 -4 1 3 2 -3 1 3 0 -6 1 -1 275 0 0 -4 1 -1 9 0 2 3 4 14 2 -4 2 -14 1 7 2 -6 2 5 2 -4 1 4 276 0M961 661l0 -2"/>
<path stroke="red" d="M961 661l6 0 2 1 1 0"/>
<path stroke="blue" d="M50 23l46 0"/>
<text stroke="none" fill="white" font-size="16" x="106" y="32">
vout
</text>
<path stroke="blue" d="M50 110l0 -2 1 -2 1 -1 2 0 2 -1 2 -2 2 -1 2 4 1 27 2 136 2 270 2 120 2 -3 2 3 1 -1 2 1 2 0M78 659l0 -1M78 659l276 0M354 660l0 -1M354 660l2 0 2 1 6 0 2 -5 1 -22 2 -99 2 -192 2 -173 2 -49 2 -5 1 -1 3 0 0 -2 1 -2 0 -1 275 0"/>
<path stroke="blue" d="M657 110l0 -1 1 -2 0 -2 2 0 4 -2 1 -1 2 -1 2 7 2 38 2 172 2 273 2 74 1 -13 2 8 2 -4 2 3 1 -2M685 659l0 -2M685 659l276 0M961 660l0 -1M961 660l3 0 1 1 5 0"/>
</svg>
