<?xml version="1.0" standalone="yes"?>
<!DOCTYPE svg PUBLIC "-//W3C//DTD SVG 1.1//EN"
 "http://www.w3.org/Graphics/SVG/1.1/DTD/svg11.dtd">
<svg xmlns="http://www.w3.org/2000/svg" version="1.1"
  width="100%" height="100%" viewBox="0 0 1024 768"
  style="fill: none; font-family: Helvetica;
 font: Helvetica;
">

<!-- Creator: NGspice -->

<rect x="0" y="0" width="1024" height="768" fill="black" stroke="none"/>
<text stroke="none" fill="white" font-size="16" x="358" y="752">
v-sweep
</text>
<text stroke="none" fill="white" font-size="16" x="10" y="16">
dc1: ** sch_path: /home/prime/inv_test/inv_test.sch
</text>
<path stroke="white" d="M50 720l0 -670"/>
<text stroke="none" fill="white" font-size="16" x="35" y="728">
0.0
</text>
<path stroke="white" stroke-dasharray="1,2" d="M142 720l0 -670"/>
<text stroke="none" fill="white" font-size="16" x="127" y="728">
0.2
</text>
<path stroke="white" stroke-dasharray="1,2" d="M234 720l0 -670"/>
<text stroke="none" fill="white" font-size="16" x="219" y="728">
0.4
</text>
<path stroke="white" stroke-dasharray="1,2" d="M326 720l0 -670"/>
<text stroke="none" fill="white" font-size="16" x="311" y="728">
0.6
</text>
<path stroke="white" stroke-dasharray="1,2" d="M418 720l0 -670"/>
<text stroke="none" fill="white" font-size="16" x="403" y="728">
0.8
</text>
<path stroke="white" stroke-dasharray="1,2" d="M510 720l0 -670"/>
<text stroke="none" fill="white" font-size="16" x="495" y="728">
1.0
</text>
<path stroke="white" stroke-dasharray="1,2" d="M602 720l0 -670"/>
<text stroke="none" fill="white" font-size="16" x="587" y="728">
1.2
</text>
<path stroke="white" stroke-dasharray="1,2" d="M694 720l0 -670"/>
<text stroke="none" fill="white" font-size="16" x="679" y="728">
1.4
</text>
<path stroke="white" stroke-dasharray="1,2" d="M786 720l0 -670"/>
<text stroke="none" fill="white" font-size="16" x="771" y="728">
1.6
</text>
<path stroke="white" stroke-dasharray="1,2" d="M878 720l0 -670"/>
<text stroke="none" fill="white" font-size="16" x="863" y="728">
1.8
</text>
<path stroke="white" stroke-dasharray="1,2" d="M970 720l0 -670"/>
<text stroke="none" fill="white" font-size="16" x="955" y="728">
2.0
</text>
<text stroke="none" fill="white" font-size="16" x="614" y="752">
V
</text>
<path stroke="white" d="M50 720l920 0"/>
<text stroke="none" fill="white" font-size="16" x="18" y="728">
0.0
</text>
<path stroke="white" stroke-dasharray="1,2" d="M50 653l920 0"/>
<text stroke="none" fill="white" font-size="16" x="18" y="661">
0.1
</text>
<path stroke="white" stroke-dasharray="1,2" d="M50 586l920 0"/>
<text stroke="none" fill="white" font-size="16" x="18" y="594">
0.2
</text>
<path stroke="white" stroke-dasharray="1,2" d="M50 519l920 0"/>
<text stroke="none" fill="white" font-size="16" x="18" y="527">
0.3
</text>
<path stroke="white" stroke-dasharray="1,2" d="M50 452l920 0"/>
<text stroke="none" fill="white" font-size="16" x="18" y="460">
0.4
</text>
<path stroke="white" stroke-dasharray="1,2" d="M50 385l920 0"/>
<text stroke="none" fill="white" font-size="16" x="18" y="393">
0.5
</text>
<path stroke="white" stroke-dasharray="1,2" d="M50 318l920 0"/>
<text stroke="none" fill="white" font-size="16" x="18" y="326">
0.6
</text>
<path stroke="white" stroke-dasharray="1,2" d="M50 251l920 0"/>
<text stroke="none" fill="white" font-size="16" x="18" y="259">
0.7
</text>
<path stroke="white" stroke-dasharray="1,2" d="M50 184l920 0"/>
<text stroke="none" fill="white" font-size="16" x="18" y="192">
0.8
</text>
<path stroke="white" stroke-dasharray="1,2" d="M50 117l920 0"/>
<text stroke="none" fill="white" font-size="16" x="18" y="125">
0.9
</text>
<path stroke="white" stroke-dasharray="1,2" d="M50 50l920 0"/>
<text stroke="none" fill="white" font-size="16" x="18" y="58">
1.0
</text>
<text stroke="none" fill="white" font-size="16" x="10" y="32">
     
</text>
<path stroke="red" d="M460 23l46 0"/>
<text stroke="none" fill="white" font-size="16" x="516" y="32">
gain
</text>
<path stroke="red" d="M50 720l342 0 0 -670 109 0M501 720l0 -670M501 720l469 0"/>
</svg>
