<?xml version="1.0" standalone="yes"?>
<!DOCTYPE svg PUBLIC "-//W3C//DTD SVG 1.1//EN"
 "http://www.w3.org/Graphics/SVG/1.1/DTD/svg11.dtd">
<svg xmlns="http://www.w3.org/2000/svg" version="1.1"
  width="100%" height="100%" viewBox="0 0 1024 768"
  style="fill: none; font-family: Helvetica;
 font: Helvetica;
">

<!-- Creator: NGspice -->

<rect x="0" y="0" width="1024" height="768" fill="black" stroke="none"/>
<text stroke="none" fill="white" font-size="16" x="358" y="752">
time
</text>
<text stroke="none" fill="white" font-size="16" x="10" y="16">
tran1: ** sch_path: /home/prime/cmos-inverter-design/schematics/inv.sch
</text>
<path stroke="white" d="M50 720l0 -671"/>
<text stroke="none" fill="white" font-size="16" x="35" y="728">
0.0
</text>
<path stroke="white" stroke-dasharray="1,2" d="M142 720l0 -671"/>
<text stroke="none" fill="white" font-size="16" x="127" y="728">
1.0
</text>
<path stroke="white" stroke-dasharray="1,2" d="M234 720l0 -671"/>
<text stroke="none" fill="white" font-size="16" x="219" y="728">
2.0
</text>
<path stroke="white" stroke-dasharray="1,2" d="M326 720l0 -671"/>
<text stroke="none" fill="white" font-size="16" x="311" y="728">
3.0
</text>
<path stroke="white" stroke-dasharray="1,2" d="M418 720l0 -671"/>
<text stroke="none" fill="white" font-size="16" x="403" y="728">
4.0
</text>
<path stroke="white" stroke-dasharray="1,2" d="M510 720l0 -671"/>
<text stroke="none" fill="white" font-size="16" x="495" y="728">
5.0
</text>
<path stroke="white" stroke-dasharray="1,2" d="M602 720l0 -671"/>
<text stroke="none" fill="white" font-size="16" x="587" y="728">
6.0
</text>
<path stroke="white" stroke-dasharray="1,2" d="M694 720l0 -671"/>
<text stroke="none" fill="white" font-size="16" x="679" y="728">
7.0
</text>
<path stroke="white" stroke-dasharray="1,2" d="M786 720l0 -671"/>
<text stroke="none" fill="white" font-size="16" x="771" y="728">
8.0
</text>
<path stroke="white" stroke-dasharray="1,2" d="M878 720l0 -671"/>
<text stroke="none" fill="white" font-size="16" x="863" y="728">
9.0
</text>
<path stroke="white" stroke-dasharray="1,2" d="M970 720l0 -671"/>
<text stroke="none" fill="white" font-size="16" x="950" y="728">
10.0
</text>
<text stroke="none" fill="white" font-size="16" x="614" y="752">
ns
</text>
<path stroke="white" stroke-dasharray="1,2" d="M50 720l920 0"/>
<text stroke="none" fill="white" font-size="16" x="8" y="728">
-0.2
</text>
<path stroke="white" d="M50 659l920 0"/>
<text stroke="none" fill="white" font-size="16" x="18" y="667">
0.0
</text>
<path stroke="white" stroke-dasharray="1,2" d="M50 598l920 0"/>
<text stroke="none" fill="white" font-size="16" x="18" y="606">
0.2
</text>
<path stroke="white" stroke-dasharray="1,2" d="M50 537l920 0"/>
<text stroke="none" fill="white" font-size="16" x="18" y="545">
0.4
</text>
<path stroke="white" stroke-dasharray="1,2" d="M50 476l920 0"/>
<text stroke="none" fill="white" font-size="16" x="18" y="484">
0.6
</text>
<path stroke="white" stroke-dasharray="1,2" d="M50 415l920 0"/>
<text stroke="none" fill="white" font-size="16" x="18" y="423">
0.8
</text>
<path stroke="white" stroke-dasharray="1,2" d="M50 354l920 0"/>
<text stroke="none" fill="white" font-size="16" x="18" y="362">
1.0
</text>
<path stroke="white" stroke-dasharray="1,2" d="M50 293l920 0"/>
<text stroke="none" fill="white" font-size="16" x="18" y="301">
1.2
</text>
<path stroke="white" stroke-dasharray="1,2" d="M50 232l920 0"/>
<text stroke="none" fill="white" font-size="16" x="18" y="240">
1.4
</text>
<path stroke="white" stroke-dasharray="1,2" d="M50 171l920 0"/>
<text stroke="none" fill="white" font-size="16" x="18" y="179">
1.6
</text>
<path stroke="white" stroke-dasharray="1,2" d="M50 110l920 0"/>
<text stroke="none" fill="white" font-size="16" x="18" y="118">
1.8
</text>
<path stroke="white" stroke-dasharray="1,2" d="M50 49l920 0"/>
<text stroke="none" fill="white" font-size="16" x="18" y="57">
2.0
</text>
<text stroke="none" fill="white" font-size="16" x="10" y="32">
V
</text>
<path stroke="red" d="M460 23l46 0"/>
<text stroke="none" fill="white" font-size="16" x="516" y="32">
vin
</text>
<path stroke="red" d="M50 659l0 -6 1 -6 0 -11 1 -24 2 -36 4 -74 2 -36 2 -37 1 -36 4 -74 2 -36 2 -37 2 -36 1 -37 2 -37 2 -26 276 0M354 121l0 -11M354 121l1 15 1 29 2 37 2 36 2 37 2 36 2 37 1 37 2 36 2 37 2 36 4 74 1 36 2 37 1 18 276 0 0 -4 1 -7"/>
<path stroke="red" d="M658 648l0 -15 2 -29 2 -36 2 -37 1 -37 2 -36 2 -37 2 -36 4 -74 2 -36 1 -37 2 -36 4 -74 1 -18 276 0M961 121l0 -11M961 121l1 15 2 29 1 37 2 36 2 37 1 18"/>
<path stroke="blue" d="M50 23l46 0"/>
<text stroke="none" fill="white" font-size="16" x="106" y="32">
vout
</text>
<path stroke="blue" d="M50 110l0 -2 1 -1 0 -1 1 -1 2 0 4 -2 2 -2 2 4 1 23 2 110 2 227 2 175 2 22 2 -7 1 4 2 -2 2 2 276 0M354 660l0 -1M354 660l2 0 2 1 6 0 2 -5 1 -19 2 -81 2 -161 2 -186 2 -79 2 -14 1 -1 3 0 0 -2 1 -1 0 -2 275 0 0 -1 1 -2 0 -1"/>
<path stroke="blue" d="M658 106l4 -2 2 0 1 -2 2 -1 2 6 2 33 2 138 2 246 2 130 1 4 2 -1 2 1 3 0M685 659l0 -1M685 659l276 0M961 660l0 -1M961 660l3 0 1 1 5 0"/>
</svg>
