<?xml version="1.0" standalone="yes"?>
<!DOCTYPE svg PUBLIC "-//W3C//DTD SVG 1.1//EN"
 "http://www.w3.org/Graphics/SVG/1.1/DTD/svg11.dtd">
<svg xmlns="http://www.w3.org/2000/svg" version="1.1"
  width="100%" height="100%" viewBox="0 0 1024 768"
  style="fill: none; font-family: Helvetica;
 font: Helvetica;
">

<!-- Creator: NGspice -->

<rect x="0" y="0" width="1024" height="768" fill="black" stroke="none"/>
<text stroke="none" fill="white" font-size="16" x="358" y="752">
v-sweep
</text>
<text stroke="none" fill="white" font-size="16" x="10" y="16">
dc2: ** sch_path: /home/prime/cmos-inverter-design/schematics/transient_simulation.sch
</text>
<path stroke="white" stroke-dasharray="1,2" d="M70 720l0 -671"/>
<text stroke="none" fill="white" font-size="16" x="50" y="728">
-1.8
</text>
<path stroke="white" stroke-dasharray="1,2" d="M168 720l0 -671"/>
<text stroke="none" fill="white" font-size="16" x="148" y="728">
-1.6
</text>
<path stroke="white" stroke-dasharray="1,2" d="M266 720l0 -671"/>
<text stroke="none" fill="white" font-size="16" x="246" y="728">
-1.4
</text>
<path stroke="white" stroke-dasharray="1,2" d="M364 720l0 -671"/>
<text stroke="none" fill="white" font-size="16" x="344" y="728">
-1.2
</text>
<path stroke="white" stroke-dasharray="1,2" d="M462 720l0 -671"/>
<text stroke="none" fill="white" font-size="16" x="442" y="728">
-1.0
</text>
<path stroke="white" stroke-dasharray="1,2" d="M560 720l0 -671"/>
<text stroke="none" fill="white" font-size="16" x="540" y="728">
-0.8
</text>
<path stroke="white" stroke-dasharray="1,2" d="M658 720l0 -671"/>
<text stroke="none" fill="white" font-size="16" x="638" y="728">
-0.6
</text>
<path stroke="white" stroke-dasharray="1,2" d="M756 720l0 -671"/>
<text stroke="none" fill="white" font-size="16" x="736" y="728">
-0.4
</text>
<path stroke="white" stroke-dasharray="1,2" d="M854 720l0 -671"/>
<text stroke="none" fill="white" font-size="16" x="834" y="728">
-0.2
</text>
<path stroke="white" d="M952 720l0 -671"/>
<text stroke="none" fill="white" font-size="16" x="937" y="728">
0.0
</text>
<text stroke="none" fill="white" font-size="16" x="614" y="752">
V
</text>
<path stroke="white" stroke-dasharray="1,2" d="M70 720l882 0"/>
<text stroke="none" fill="white" font-size="16" x="8" y="728">
-220.0
</text>
<path stroke="white" stroke-dasharray="1,2" d="M70 659l882 0"/>
<text stroke="none" fill="white" font-size="16" x="8" y="667">
-200.0
</text>
<path stroke="white" stroke-dasharray="1,2" d="M70 598l882 0"/>
<text stroke="none" fill="white" font-size="16" x="8" y="606">
-180.0
</text>
<path stroke="white" stroke-dasharray="1,2" d="M70 537l882 0"/>
<text stroke="none" fill="white" font-size="16" x="8" y="545">
-160.0
</text>
<path stroke="white" stroke-dasharray="1,2" d="M70 476l882 0"/>
<text stroke="none" fill="white" font-size="16" x="8" y="484">
-140.0
</text>
<path stroke="white" stroke-dasharray="1,2" d="M70 415l882 0"/>
<text stroke="none" fill="white" font-size="16" x="8" y="423">
-120.0
</text>
<path stroke="white" stroke-dasharray="1,2" d="M70 354l882 0"/>
<text stroke="none" fill="white" font-size="16" x="8" y="362">
-100.0
</text>
<path stroke="white" stroke-dasharray="1,2" d="M70 293l882 0"/>
<text stroke="none" fill="white" font-size="16" x="18" y="301">
-80.0
</text>
<path stroke="white" stroke-dasharray="1,2" d="M70 232l882 0"/>
<text stroke="none" fill="white" font-size="16" x="18" y="240">
-60.0
</text>
<path stroke="white" stroke-dasharray="1,2" d="M70 171l882 0"/>
<text stroke="none" fill="white" font-size="16" x="18" y="179">
-40.0
</text>
<path stroke="white" stroke-dasharray="1,2" d="M70 110l882 0"/>
<text stroke="none" fill="white" font-size="16" x="18" y="118">
-20.0
</text>
<path stroke="white" d="M70 49l882 0"/>
<text stroke="none" fill="white" font-size="16" x="28" y="57">
-0.0
</text>
<text stroke="none" fill="white" font-size="16" x="10" y="32">
uA
</text>
<path stroke="red" d="M441 23l44 0"/>
<text stroke="none" fill="white" font-size="16" x="495" y="32">
-vds#branch
</text>
<path stroke="red" d="M70 49l882 0M70 49l882 0M786 49l166 0M786 50l0 -1M502 50l284 0M501 51l1 -1M361 51l140 0M360 52l1 -1M262 52l98 0M262 53l0 -1M184 53l78 0M184 54l0 -1M119 54l65 0M119 55l0 -1M70 55l49 0M951 49l1 0M950 50l1 -1M947 50l3 0M947 51l0 -1"/>
<path stroke="red" d="M944 51l3 0M943 52l1 -1M940 52l3 0M940 53l0 -1M936 53l4 0M936 54l0 -1M932 54l4 0M932 55l0 -1M928 55l4 0M928 56l0 -1M924 56l4 0M924 57l0 -1M920 57l4 0M919 58l1 -1M915 58l4 0M914 59l1 -1M909 59l5 0M909 60l0 -1M904 60l5 0M903 61l1 -1"/>
<path stroke="red" d="M898 61l5 0M897 62l1 -1M891 62l6 0M891 63l0 -1M883 63l8 0M883 64l0 -1M875 64l8 0M874 65l1 -1M864 65l10 0M864 66l0 -1M852 66l12 0M851 67l1 -1M836 67l15 0M835 68l1 -1M819 68l16 0M818 69l1 -1M800 69l18 0M800 70l0 -1M781 70l19 0"/>
<path stroke="red" d="M780 71l1 -1M762 71l18 0M761 72l1 -1M743 72l18 0M742 73l1 -1M724 73l18 0M723 74l1 -1M705 74l18 0M705 75l0 -1M686 75l19 0M686 76l0 -1M668 76l18 0M667 77l1 -1M650 77l17 0M649 78l1 -1M632 78l17 0M631 79l1 -1M614 79l17 0M613 80l1 -1"/>
<path stroke="red" d="M596 80l17 0M596 81l0 -1M579 81l17 0M579 82l0 -1M561 82l18 0M561 83l0 -1M545 83l16 0M544 84l1 -1M528 84l16 0M527 85l1 -1M511 85l16 0M511 86l0 -1M494 86l17 0M494 87l0 -1M478 87l16 0M478 88l0 -1M462 88l16 0M462 89l0 -1M446 89l16 0"/>
<path stroke="red" d="M445 90l1 -1M430 90l15 0M430 91l0 -1M414 91l16 0M413 92l1 -1M398 92l15 0M398 93l0 -1M383 93l15 0M383 94l0 -1M367 94l16 0M367 95l0 -1M352 95l15 0M352 96l0 -1M337 96l15 0M337 97l0 -1M322 97l15 0M321 98l1 -1M307 98l14 0M307 99l0 -1"/>
<path stroke="red" d="M292 99l15 0M292 100l0 -1M277 100l15 0M277 101l0 -1M263 101l14 0M263 102l0 -1M248 102l15 0M248 103l0 -1M234 103l14 0M233 104l1 -1M219 104l14 0M219 105l0 -1M205 105l14 0M205 106l0 -1M191 106l14 0M191 107l0 -1M177 107l14 0"/>
<path stroke="red" d="M176 108l1 -1M163 108l13 0M162 109l1 -1M149 109l13 0M148 110l1 -1M135 110l13 0M134 111l1 -1M121 111l13 0M120 112l1 -1M107 112l13 0M107 113l0 -1M94 113l13 0M93 114l1 -1M80 114l13 0M79 115l1 -1M70 115l9 0M948 53l4 -4M947 53l1 0"/>
<path stroke="red" d="M947 54l0 -1M946 54l1 0M946 55l0 -1M945 55l1 0M945 56l0 -1M944 56l1 0M941 59l3 -3M940 59l1 0M940 60l0 -1M939 60l1 0M939 61l0 -1M938 61l1 0M938 62l0 -1M937 62l1 0M934 65l3 -3M933 65l1 0M933 66l0 -1M932 66l1 0M932 67l0 -1"/>
<path stroke="red" d="M931 67l1 0M929 69l2 -2M928 69l1 0M928 70l0 -1M927 70l1 0M927 71l0 -1M926 71l1 0M926 72l0 -1M925 72l1 0M925 73l0 -1M924 73l1 0M922 75l2 -2M921 75l1 0M921 76l0 -1M920 76l1 0M918 78l2 -2M917 78l1 0M917 79l0 -1M916 79l1 0M914 81l2 -2"/>
<path stroke="red" d="M913 81l1 0M913 82l0 -1M912 82l1 0M910 84l2 -2M909 84l1 0M909 85l0 -1M908 85l1 0M907 86l1 -1M906 86l1 0M906 87l0 -1M905 87l1 0M902 90l3 -3M901 90l1 0M901 91l0 -1M900 91l1 0M899 92l1 -1M898 92l1 0M898 93l0 -1M897 93l1 0M896 94l1 -1"/>
<path stroke="red" d="M895 94l1 0M895 95l0 -1M894 95l1 0M893 96l1 -1M892 96l1 0M892 97l0 -1M891 97l1 0M890 98l1 -1M889 98l1 0M889 99l0 -1M888 99l1 0M887 100l1 -1M886 100l1 0M885 101l1 -1M884 101l1 0M884 102l0 -1M883 102l1 0M882 103l1 -1M881 103l1 0"/>
<path stroke="red" d="M881 104l0 -1M879 104l2 0M879 105l0 -1M878 105l1 0M878 106l0 -1M877 106l1 0M876 107l1 -1M875 107l1 0M874 108l1 -1M873 108l1 0M873 109l0 -1M872 109l1 0M871 110l1 -1M870 110l1 0M869 111l1 -1M868 111l1 0M868 112l0 -1M866 112l2 0"/>
<path stroke="red" d="M866 113l0 -1M864 113l2 0M864 114l0 -1M863 114l1 0M862 115l1 -1M861 115l1 0M860 116l1 -1M859 116l1 0M858 117l1 -1M857 117l1 0M856 118l1 -1M855 118l1 0M855 119l0 -1M854 119l1 0M853 120l1 -1M852 120l1 0M851 121l1 -1M850 121l1 0"/>
<path stroke="red" d="M849 122l1 -1M848 122l1 0M847 123l1 -1M846 123l1 0M845 124l1 -1M843 124l2 0M843 125l0 -1M841 125l2 0M841 126l0 -1M839 126l2 0M839 127l0 -1M837 127l2 0M836 128l1 -1M835 128l1 0M834 129l1 -1M833 129l1 0M832 130l1 -1M830 130l2 0"/>
<path stroke="red" d="M830 131l0 -1M828 131l2 0M828 132l0 -1M826 132l2 0M825 133l1 -1M824 133l1 0M823 134l1 -1M821 134l2 0M821 135l0 -1M819 135l2 0M818 136l1 -1M816 136l2 0M815 137l1 -1M813 137l2 0M813 138l0 -1M811 138l2 0M810 139l1 -1M808 139l2 0"/>
<path stroke="red" d="M807 140l1 -1M805 140l2 0M805 141l0 -1M803 141l2 0M802 142l1 -1M800 142l2 0M799 143l1 -1M797 143l2 0M796 144l1 -1M794 144l2 0M793 145l1 -1M790 145l3 0M790 146l0 -1M787 146l3 0M787 147l0 -1M784 147l3 0M783 148l1 -1M780 148l3 0"/>
<path stroke="red" d="M780 149l0 -1M777 149l3 0M777 150l0 -1M773 150l4 0M773 151l0 -1M769 151l4 0M769 152l0 -1M765 152l4 0M765 153l0 -1M761 153l4 0M761 154l0 -1M757 154l4 0M756 155l1 -1M753 155l3 0M752 156l1 -1M748 156l4 0M748 157l0 -1M743 157l5 0"/>
<path stroke="red" d="M743 158l0 -1M738 158l5 0M738 159l0 -1M733 159l5 0M733 160l0 -1M728 160l5 0M728 161l0 -1M723 161l5 0M722 162l1 -1M717 162l5 0M717 163l0 -1M711 163l6 0M711 164l0 -1M706 164l5 0M705 165l1 -1M700 165l5 0M699 166l1 -1M694 166l5 0"/>
<path stroke="red" d="M693 167l1 -1M687 167l6 0M687 168l0 -1M681 168l6 0M681 169l0 -1M675 169l6 0M674 170l1 -1M668 170l6 0M668 171l0 -1M662 171l6 0M661 172l1 -1M655 172l6 0M655 173l0 -1M649 173l6 0M648 174l1 -1M642 174l6 0M641 175l1 -1M635 175l6 0"/>
<path stroke="red" d="M634 176l1 -1M628 176l6 0M628 177l0 -1M621 177l7 0M621 178l0 -1M614 178l7 0M614 179l0 -1M607 179l7 0M607 180l0 -1M600 180l7 0M600 181l0 -1M593 181l7 0M592 182l1 -1M586 182l6 0M585 183l1 -1M579 183l6 0M578 184l1 -1M571 184l7 0"/>
<path stroke="red" d="M571 185l0 -1M564 185l7 0M564 186l0 -1M557 186l7 0M557 187l0 -1M550 187l7 0M549 188l1 -1M542 188l7 0M542 189l0 -1M535 189l7 0M535 190l0 -1M528 190l7 0M527 191l1 -1M520 191l7 0M520 192l0 -1M513 192l7 0M512 193l1 -1M506 193l6 0"/>
<path stroke="red" d="M505 194l1 -1M498 194l7 0M497 195l1 -1M490 195l7 0M490 196l0 -1M483 196l7 0M483 197l0 -1M476 197l7 0M475 198l1 -1M468 198l7 0M467 199l1 -1M461 199l6 0M460 200l1 -1M453 200l7 0M453 201l0 -1M445 201l8 0M445 202l0 -1M438 202l7 0"/>
<path stroke="red" d="M438 203l0 -1M430 203l8 0M430 204l0 -1M423 204l7 0M422 205l1 -1M415 205l7 0M414 206l1 -1M408 206l6 0M407 207l1 -1M400 207l7 0M399 208l1 -1M392 208l7 0M392 209l0 -1M385 209l7 0M384 210l1 -1M377 210l7 0M377 211l0 -1M369 211l8 0"/>
<path stroke="red" d="M369 212l0 -1M362 212l7 0M362 213l0 -1M354 213l8 0M354 214l0 -1M347 214l7 0M346 215l1 -1M339 215l7 0M339 216l0 -1M331 216l8 0M331 217l0 -1M324 217l7 0M323 218l1 -1M316 218l7 0M315 219l1 -1M308 219l7 0M308 220l0 -1M301 220l7 0"/>
<path stroke="red" d="M300 221l1 -1M293 221l7 0M292 222l1 -1M286 222l6 0M285 223l1 -1M278 223l7 0M277 224l1 -1M270 224l7 0M269 225l1 -1M263 225l6 0M262 226l1 -1M255 226l7 0M254 227l1 -1M247 227l7 0M246 228l1 -1M240 228l6 0M239 229l1 -1M232 229l7 0"/>
<path stroke="red" d="M231 230l1 -1M224 230l7 0M223 231l1 -1M217 231l6 0M216 232l1 -1M209 232l7 0M208 233l1 -1M201 233l7 0M200 234l1 -1M193 234l7 0M193 235l0 -1M186 235l7 0M185 236l1 -1M178 236l7 0M177 237l1 -1M170 237l7 0M169 238l1 -1M163 238l6 0"/>
<path stroke="red" d="M162 239l1 -1M155 239l7 0M154 240l1 -1M147 240l7 0M146 241l1 -1M140 241l6 0M139 242l1 -1M132 242l7 0M131 243l1 -1M124 243l7 0M123 244l1 -1M117 244l6 0M116 245l1 -1M109 245l7 0M108 246l1 -1M101 246l7 0M100 247l1 -1M94 247l6 0"/>
<path stroke="red" d="M93 248l1 -1M86 248l7 0M85 249l1 -1M78 249l7 0M77 250l1 -1M70 250l7 0M70 251l0 -1M952 50l0 -1M950 52l2 -2M950 53l0 -1M949 53l1 0M949 54l0 -1M948 55l1 -1M948 56l0 -1M947 56l1 0M947 57l0 -1M946 58l1 -1M946 59l0 -1M945 59l1 0"/>
<path stroke="red" d="M945 60l0 -1M944 61l1 -1M944 62l0 -1M943 62l1 0M943 63l0 -1M942 64l1 -1M942 65l0 -1M941 65l1 0M941 66l0 -1M939 68l2 -2M939 69l0 -1M937 71l2 -2M937 72l0 -1M936 72l1 0M936 73l0 -1M935 74l1 -1M935 75l0 -1M934 75l1 0M934 76l0 -1"/>
<path stroke="red" d="M932 78l2 -2M932 79l0 -1M931 79l1 0M931 80l0 -1M930 81l1 -1M930 82l0 -1M929 82l1 0M929 83l0 -1M927 85l2 -2M927 86l0 -1M926 87l1 -1M926 88l0 -1M925 88l1 0M925 89l0 -1M923 91l2 -2M923 92l0 -1M921 94l2 -2M921 95l0 -1M920 95l1 0"/>
<path stroke="red" d="M920 96l0 -1M918 98l2 -2M918 99l0 -1M917 99l1 0M917 100l0 -1M915 102l2 -2M915 103l0 -1M914 103l1 0M914 104l0 -1M911 107l3 -3M911 108l0 -1M910 108l1 0M910 109l0 -1M908 111l2 -2M908 112l0 -1M907 112l1 0M907 113l0 -1M904 116l3 -3"/>
<path stroke="red" d="M904 117l0 -1M903 117l1 0M903 119l0 -2M902 119l1 0M902 120l0 -1M899 123l3 -3M899 124l0 -1M898 124l1 0M898 125l0 -1M895 128l3 -3M895 129l0 -1M894 129l1 0M894 130l0 -1M893 130l1 0M893 131l0 -1M890 134l3 -3M890 135l0 -1M889 135l1 0"/>
<path stroke="red" d="M889 136l0 -1M888 136l1 0M888 137l0 -1M885 140l3 -3M885 141l0 -1M884 141l1 0M884 142l0 -1M883 142l1 0M883 143l0 -1M879 147l4 -4M879 148l0 -1M878 148l1 0M878 149l0 -1M876 151l2 -2M876 152l0 -1M875 152l1 0M875 153l0 -1M874 153l1 0"/>
<path stroke="red" d="M874 154l0 -1M873 154l1 0M873 155l0 -1M868 160l5 -5M868 161l0 -1M867 161l1 0M867 162l0 -1M866 162l1 0M866 163l0 -1M865 163l1 0M865 164l0 -1M864 164l1 0M864 165l0 -1M863 165l1 0M863 166l0 -1M854 175l9 -9M854 176l0 -1M834 196l20 -20"/>
<path stroke="red" d="M833 196l1 0M833 197l0 -1M832 197l1 0M832 198l0 -1M831 198l1 0M831 199l0 -1M830 199l1 0M830 200l0 -1M829 200l1 0M829 201l0 -1M826 204l3 -3M825 204l1 0M825 205l0 -1M824 205l1 0M824 206l0 -1M823 206l1 0M823 207l0 -1M822 207l1 0"/>
<path stroke="red" d="M822 208l0 -1M821 208l1 0M821 209l0 -1M820 209l1 0M816 213l4 -4M815 213l1 0M815 214l0 -1M814 214l1 0M814 215l0 -1M813 215l1 0M813 216l0 -1M812 216l1 0M812 217l0 -1M811 217l1 0M808 220l3 -3M807 220l1 0M807 221l0 -1M806 221l1 0"/>
<path stroke="red" d="M806 222l0 -1M805 222l1 0M805 223l0 -1M804 223l1 0M804 224l0 -1M803 224l1 0M803 225l0 -1M802 225l1 0M800 227l2 -2M799 227l1 0M799 228l0 -1M798 228l1 0M798 229l0 -1M797 229l1 0M797 230l0 -1M796 230l1 0M794 232l2 -2M793 232l1 0"/>
<path stroke="red" d="M793 233l0 -1M792 233l1 0M792 234l0 -1M791 234l1 0M790 235l1 -1M789 235l1 0M789 236l0 -1M788 236l1 0M788 237l0 -1M787 237l1 0M785 239l2 -2M784 239l1 0M784 240l0 -1M783 240l1 0M781 242l2 -2M780 242l1 0M780 243l0 -1M779 243l1 0"/>
<path stroke="red" d="M779 244l0 -1M778 244l1 0M778 245l0 -1M777 245l1 0M776 246l1 -1M775 246l1 0M775 247l0 -1M774 247l1 0M772 249l2 -2M771 249l1 0M771 250l0 -1M770 250l1 0M769 251l1 -1M768 251l1 0M768 252l0 -1M767 252l1 0M766 253l1 -1M765 253l1 0"/>
<path stroke="red" d="M765 254l0 -1M764 254l1 0M763 255l1 -1M762 255l1 0M762 256l0 -1M761 256l1 0M761 257l0 -1M760 257l1 0M759 258l1 -1M758 258l1 0M758 259l0 -1M757 259l1 0M756 260l1 -1M755 260l1 0M755 261l0 -1M754 261l1 0M753 262l1 -1M752 262l1 0"/>
<path stroke="red" d="M752 263l0 -1M751 263l1 0M750 264l1 -1M749 264l1 0M749 265l0 -1M748 265l1 0M747 266l1 -1M746 266l1 0M746 267l0 -1M744 267l2 0M744 268l0 -1M743 268l1 0M742 269l1 -1M741 269l1 0M741 270l0 -1M739 270l2 0M739 271l0 -1M738 271l1 0"/>
<path stroke="red" d="M737 272l1 -1M736 272l1 0M736 273l0 -1M734 273l2 0M734 274l0 -1M733 274l1 0M732 275l1 -1M731 275l1 0M731 276l0 -1M730 276l1 0M729 277l1 -1M728 277l1 0M727 278l1 -1M726 278l1 0M726 279l0 -1M724 279l2 0M724 280l0 -1M722 280l2 0"/>
<path stroke="red" d="M722 281l0 -1M721 281l1 0M720 282l1 -1M719 282l1 0M718 283l1 -1M717 283l1 0M716 284l1 -1M715 284l1 0M714 285l1 -1M713 285l1 0M712 286l1 -1M711 286l1 0M710 287l1 -1M709 287l1 0M708 288l1 -1M707 288l1 0M707 289l0 -1M705 289l2 0"/>
<path stroke="red" d="M705 290l0 -1M703 290l2 0M703 291l0 -1M701 291l2 0M701 292l0 -1M699 292l2 0M699 293l0 -1M697 293l2 0M696 294l1 -1M695 294l1 0M694 295l1 -1M693 295l1 0M692 296l1 -1M690 296l2 0M690 297l0 -1M688 297l2 0M688 298l0 -1M686 298l2 0"/>
<path stroke="red" d="M685 299l1 -1M683 299l2 0M683 300l0 -1M682 300l1 0M681 301l1 -1M679 301l2 0M679 302l0 -1M677 302l2 0M676 303l1 -1M674 303l2 0M674 304l0 -1M672 304l2 0M671 305l1 -1M669 305l2 0M669 306l0 -1M667 306l2 0M666 307l1 -1M664 307l2 0"/>
<path stroke="red" d="M663 308l1 -1M661 308l2 0M661 309l0 -1M659 309l2 0M658 310l1 -1M656 310l2 0M656 311l0 -1M654 311l2 0M653 312l1 -1M651 312l2 0M650 313l1 -1M648 313l2 0M647 314l1 -1M645 314l2 0M644 315l1 -1M642 315l2 0M642 316l0 -1M639 316l3 0"/>
<path stroke="red" d="M639 317l0 -1M636 317l3 0M635 318l1 -1M633 318l2 0M633 319l0 -1M630 319l3 0M630 320l0 -1M627 320l3 0M627 321l0 -1M624 321l3 0M623 322l1 -1M621 322l2 0M620 323l1 -1M617 323l3 0M617 324l0 -1M614 324l3 0M613 325l1 -1M611 325l2 0"/>
<path stroke="red" d="M610 326l1 -1M608 326l2 0M607 327l1 -1M604 327l3 0M604 328l0 -1M601 328l3 0M600 329l1 -1M597 329l3 0M597 330l0 -1M594 330l3 0M593 331l1 -1M590 331l3 0M589 332l1 -1M586 332l3 0M586 333l0 -1M583 333l3 0M583 334l0 -1M579 334l4 0"/>
<path stroke="red" d="M579 335l0 -1M576 335l3 0M575 336l1 -1M572 336l3 0M571 337l1 -1M568 337l3 0M568 338l0 -1M564 338l4 0M564 339l0 -1M560 339l4 0M560 340l0 -1M557 340l3 0M556 341l1 -1M553 341l3 0M552 342l1 -1M549 342l3 0M548 343l1 -1M545 343l3 0"/>
<path stroke="red" d="M544 344l1 -1M541 344l3 0M540 345l1 -1M537 345l3 0M536 346l1 -1M533 346l3 0M533 347l0 -1M529 347l4 0M529 348l0 -1M525 348l4 0M524 349l1 -1M521 349l3 0M520 350l1 -1M517 350l3 0M516 351l1 -1M512 351l4 0M512 352l0 -1M509 352l3 0"/>
<path stroke="red" d="M508 353l1 -1M504 353l4 0M504 354l0 -1M500 354l4 0M499 355l1 -1M496 355l3 0M495 356l1 -1M491 356l4 0M491 357l0 -1M487 357l4 0M486 358l1 -1M483 358l3 0M483 359l0 -1M479 359l4 0M478 360l1 -1M474 360l4 0M474 361l0 -1M470 361l4 0"/>
<path stroke="red" d="M469 362l1 -1M465 362l4 0M465 363l0 -1M461 363l4 0M461 364l0 -1M457 364l4 0M456 365l1 -1M452 365l4 0M452 366l0 -1M448 366l4 0M447 367l1 -1M443 367l4 0M443 368l0 -1M438 368l5 0M438 369l0 -1M434 369l4 0M434 370l0 -1M430 370l4 0"/>
<path stroke="red" d="M429 371l1 -1M425 371l4 0M425 372l0 -1M420 372l5 0M420 373l0 -1M416 373l4 0M415 374l1 -1M412 374l3 0M411 375l1 -1M407 375l4 0M406 376l1 -1M402 376l4 0M402 377l0 -1M398 377l4 0M397 378l1 -1M393 378l4 0M392 379l1 -1M389 379l3 0"/>
<path stroke="red" d="M388 380l1 -1M384 380l4 0M383 381l1 -1M379 381l4 0M378 382l1 -1M374 382l4 0M374 383l0 -1M369 383l5 0M369 384l0 -1M365 384l4 0M364 385l1 -1M360 385l4 0M360 386l0 -1M355 386l5 0M355 387l0 -1M351 387l4 0M350 388l1 -1M346 388l4 0"/>
<path stroke="red" d="M345 389l1 -1M341 389l4 0M340 390l1 -1M336 390l4 0M336 391l0 -1M331 391l5 0M331 392l0 -1M327 392l4 0M326 393l1 -1M322 393l4 0M321 394l1 -1M317 394l4 0M316 395l1 -1M312 395l4 0M312 396l0 -1M307 396l5 0M307 397l0 -1M302 397l5 0"/>
<path stroke="red" d="M302 398l0 -1M297 398l5 0M297 399l0 -1M292 399l5 0M292 400l0 -1M288 400l4 0M287 401l1 -1M283 401l4 0M282 402l1 -1M278 402l4 0M277 403l1 -1M273 403l4 0M272 404l1 -1M268 404l4 0M267 405l1 -1M263 405l4 0M263 406l0 -1M258 406l5 0"/>
<path stroke="red" d="M258 407l0 -1M253 407l5 0M253 408l0 -1M248 408l5 0M248 409l0 -1M243 409l5 0M243 410l0 -1M239 410l4 0M238 411l1 -1M233 411l5 0M233 412l0 -1M228 412l5 0M228 413l0 -1M223 413l5 0M223 414l0 -1M218 414l5 0M218 415l0 -1M214 415l4 0"/>
<path stroke="red" d="M213 416l1 -1M208 416l5 0M208 417l0 -1M203 417l5 0M203 418l0 -1M198 418l5 0M198 419l0 -1M193 419l5 0M193 420l0 -1M188 420l5 0M188 421l0 -1M183 421l5 0M183 422l0 -1M178 422l5 0M178 423l0 -1M173 423l5 0M172 424l1 -1M168 424l4 0"/>
<path stroke="red" d="M168 425l0 -1M163 425l5 0M163 426l0 -1M158 426l5 0M157 427l1 -1M153 427l4 0M152 428l1 -1M147 428l5 0M147 429l0 -1M143 429l4 0M142 430l1 -1M138 430l4 0M137 431l1 -1M132 431l5 0M132 432l0 -1M127 432l5 0M127 433l0 -1M122 433l5 0"/>
<path stroke="red" d="M121 434l1 -1M117 434l4 0M117 435l0 -1M112 435l5 0M111 436l1 -1M107 436l4 0M106 437l1 -1M101 437l5 0M101 438l0 -1M96 438l5 0M96 439l0 -1M91 439l5 0M91 440l0 -1M86 440l5 0M86 441l0 -1M81 441l5 0M80 442l1 -1M76 442l4 0M75 443l1 -1"/>
<path stroke="red" d="M70 443l5 0M70 444l0 -1M952 50l0 -1M951 51l1 -1M951 52l0 -1M950 53l1 -1M950 54l0 -1M949 55l1 -1M949 56l0 -1M948 57l1 -1M948 58l0 -1M947 59l1 -1M947 60l0 -1M946 61l1 -1M946 62l0 -1M945 63l1 -1M945 64l0 -1M944 65l1 -1M944 66l0 -1"/>
<path stroke="red" d="M943 67l1 -1M943 68l0 -1M941 70l2 -2M941 71l0 -1M940 72l1 -1M940 73l0 -1M939 74l1 -1M939 75l0 -1M938 76l1 -1M938 77l0 -1M937 78l1 -1M937 79l0 -1M936 80l1 -1M936 81l0 -1M935 82l1 -1M935 83l0 -1M934 84l1 -1M934 85l0 -1M933 86l1 -1"/>
<path stroke="red" d="M933 87l0 -1M931 89l2 -2M931 90l0 -1M930 91l1 -1M930 92l0 -1M929 93l1 -1M929 94l0 -1M928 95l1 -1M928 96l0 -1M927 97l1 -1M927 99l0 -2M926 100l1 -1M926 101l0 -1M925 101l1 0M925 102l0 -1M924 103l1 -1M924 104l0 -1M923 105l1 -1"/>
<path stroke="red" d="M923 106l0 -1M922 107l1 -1M922 108l0 -1M921 109l1 -1M921 110l0 -1M920 111l1 -1M920 112l0 -1M919 112l1 0M919 113l0 -1M918 114l1 -1M918 115l0 -1M917 116l1 -1M917 117l0 -1M916 118l1 -1M916 119l0 -1M915 120l1 -1M915 121l0 -1"/>
<path stroke="red" d="M914 121l1 0M914 122l0 -1M913 123l1 -1M913 124l0 -1M912 125l1 -1M912 126l0 -1M911 127l1 -1M911 128l0 -1M909 130l2 -2M909 131l0 -1M908 132l1 -1M908 133l0 -1M907 134l1 -1M907 135l0 -1M905 137l2 -2M905 138l0 -1M904 139l1 -1"/>
<path stroke="red" d="M904 140l0 -1M903 141l1 -1M903 143l0 -2M902 143l1 0M902 144l0 -1M901 145l1 -1M901 146l0 -1M900 147l1 -1M900 148l0 -1M898 150l2 -2M898 151l0 -1M897 152l1 -1M897 153l0 -1M896 154l1 -1M896 155l0 -1M895 155l1 0M895 156l0 -1"/>
<path stroke="red" d="M894 157l1 -1M894 158l0 -1M893 159l1 -1M893 160l0 -1M892 160l1 0M892 161l0 -1M891 162l1 -1M891 163l0 -1M890 164l1 -1M890 165l0 -1M889 165l1 0M889 166l0 -1M888 167l1 -1M888 168l0 -1M887 169l1 -1M887 170l0 -1M886 170l1 0M886 171l0 -1"/>
<path stroke="red" d="M885 172l1 -1M885 173l0 -1M884 174l1 -1M884 175l0 -1M883 175l1 0M883 176l0 -1M882 177l1 -1M882 178l0 -1M880 180l2 -2M880 181l0 -1M879 182l1 -1M879 183l0 -1M878 183l1 0M878 185l0 -2M877 186l1 -1M877 187l0 -1M875 189l2 -2"/>
<path stroke="red" d="M875 190l0 -1M874 191l1 -1M874 192l0 -1M873 192l1 0M873 193l0 -1M872 194l1 -1M872 195l0 -1M871 195l1 0M871 196l0 -1M870 197l1 -1M870 198l0 -1M868 200l2 -2M868 201l0 -1M867 202l1 -1M867 203l0 -1M866 203l1 0M866 204l0 -1M865 205l1 -1"/>
<path stroke="red" d="M865 206l0 -1M864 206l1 0M864 207l0 -1M863 208l1 -1M863 209l0 -1M861 211l2 -2M861 212l0 -1M859 214l2 -2M859 215l0 -1M857 217l2 -2M857 218l0 -1M855 220l2 -2M855 221l0 -1M854 222l1 -1M854 223l0 -1M853 224l1 -1M853 225l0 -1"/>
<path stroke="red" d="M852 225l1 0M852 226l0 -1M851 227l1 -1M851 228l0 -1M850 228l1 0M850 229l0 -1M849 230l1 -1M849 231l0 -1M848 231l1 0M848 232l0 -1M847 233l1 -1M847 234l0 -1M846 234l1 0M846 235l0 -1M845 236l1 -1M845 237l0 -1M844 237l1 0M844 238l0 -1"/>
<path stroke="red" d="M843 239l1 -1M843 240l0 -1M842 240l1 0M842 241l0 -1M840 243l2 -2M840 244l0 -1M838 246l2 -2M838 247l0 -1M837 247l1 0M837 248l0 -1M836 249l1 -1M836 250l0 -1M835 250l1 0M835 251l0 -1M833 253l2 -2M833 254l0 -1M831 256l2 -2M831 257l0 -1"/>
<path stroke="red" d="M830 257l1 0M830 258l0 -1M829 259l1 -1M829 260l0 -1M828 261l1 -1M828 262l0 -1M827 262l1 0M827 263l0 -1M825 265l2 -2M825 266l0 -1M824 266l1 0M824 267l0 -1M822 269l2 -2M822 270l0 -1M821 270l1 0M821 271l0 -1M820 272l1 -1M820 273l0 -1"/>
<path stroke="red" d="M819 273l1 0M819 274l0 -1M817 276l2 -2M817 277l0 -1M816 277l1 0M816 278l0 -1M814 280l2 -2M814 281l0 -1M813 281l1 0M813 282l0 -1M811 284l2 -2M811 285l0 -1M810 285l1 0M810 286l0 -1M807 289l3 -3M807 290l0 -1M806 290l1 0M806 291l0 -1"/>
<path stroke="red" d="M805 292l1 -1M805 293l0 -1M803 295l2 -2M803 296l0 -1M802 296l1 0M802 297l0 -1M799 300l3 -3M799 301l0 -1M798 301l1 0M798 302l0 -1M795 305l3 -3M795 306l0 -1M794 306l1 0M794 307l0 -1M791 310l3 -3M791 311l0 -1M790 311l1 0M790 312l0 -1"/>
<path stroke="red" d="M787 315l3 -3M787 316l0 -1M786 316l1 0M786 317l0 -1M785 317l1 0M785 318l0 -1M782 321l3 -3M782 322l0 -1M781 322l1 0M781 323l0 -1M780 323l1 0M780 325l0 -2M779 325l1 0M779 326l0 -1M778 326l1 0M778 327l0 -1M775 330l3 -3M775 331l0 -1"/>
<path stroke="red" d="M774 331l1 0M774 332l0 -1M773 332l1 0M773 333l0 -1M772 333l1 0M772 334l0 -1M768 338l4 -4M768 339l0 -1M767 339l1 0M767 340l0 -1M766 340l1 0M766 341l0 -1M765 341l1 0M765 342l0 -1M761 346l4 -4M761 347l0 -1M760 347l1 0M760 348l0 -1"/>
<path stroke="red" d="M759 348l1 0M759 349l0 -1M758 349l1 0M758 350l0 -1M757 350l1 0M757 351l0 -1M756 351l1 0M756 353l0 -2M755 353l1 0M755 354l0 -1M754 354l1 0M754 355l0 -1M753 355l1 0M753 356l0 -1M752 356l1 0M752 357l0 -1M751 357l1 0M751 358l0 -1"/>
<path stroke="red" d="M742 367l9 -9M742 368l0 -1M741 368l1 0M741 369l0 -1M740 369l1 0M740 370l0 -1M739 370l1 0M739 371l0 -1M738 371l1 0M738 372l0 -1M737 372l1 0M737 373l0 -1M736 373l1 0M736 374l0 -1M735 374l1 0M735 375l0 -1M734 375l1 0M734 376l0 -1"/>
<path stroke="red" d="M733 376l1 0M733 377l0 -1M732 377l1 0M732 378l0 -1M731 378l1 0M731 379l0 -1M718 392l13 -13M717 392l1 0M717 393l0 -1M716 393l1 0M716 394l0 -1M715 394l1 0M715 395l0 -1M714 395l1 0M714 396l0 -1M713 396l1 0M713 397l0 -1M712 397l1 0"/>
<path stroke="red" d="M712 398l0 -1M711 398l1 0M711 399l0 -1M710 399l1 0M707 402l3 -3M707 403l0 -1M706 403l1 0M706 404l0 -1M705 404l1 0M705 405l0 -1M704 405l1 0M700 409l4 -4M699 409l1 0M699 410l0 -1M698 410l1 0M698 411l0 -1M697 411l1 0M697 412l0 -1"/>
<path stroke="red" d="M696 412l1 0M696 413l0 -1M695 413l1 0M692 416l3 -3M691 416l1 0M691 417l0 -1M690 417l1 0M690 418l0 -1M689 418l1 0M689 419l0 -1M688 419l1 0M685 422l3 -3M684 422l1 0M684 423l0 -1M683 423l1 0M683 424l0 -1M682 424l1 0M682 425l0 -1"/>
<path stroke="red" d="M681 425l1 0M681 426l0 -1M680 426l1 0M677 429l3 -3M676 429l1 0M676 430l0 -1M675 430l1 0M675 431l0 -1M674 431l1 0M672 433l2 -2M671 433l1 0M671 434l0 -1M670 434l1 0M670 435l0 -1M669 435l1 0M668 436l1 -1M667 436l1 0M667 437l0 -1"/>
<path stroke="red" d="M666 437l1 0M666 438l0 -1M665 438l1 0M663 440l2 -2M662 440l1 0M662 441l0 -1M661 441l1 0M659 443l2 -2M658 443l1 0M658 444l0 -1M657 444l1 0M657 445l0 -1M656 445l1 0M656 446l0 -1M655 446l1 0M654 447l1 -1M653 447l1 0M653 448l0 -1"/>
<path stroke="red" d="M652 448l1 0M650 450l2 -2M649 450l1 0M649 451l0 -1M648 451l1 0M647 452l1 -1M646 452l1 0M646 453l0 -1M645 453l1 0M643 455l2 -2M642 455l1 0M642 456l0 -1M641 456l1 0M640 457l1 -1M639 457l1 0M639 458l0 -1M638 458l1 0M637 459l1 -1"/>
<path stroke="red" d="M636 459l1 0M636 460l0 -1M635 460l1 0M634 461l1 -1M633 461l1 0M633 462l0 -1M632 462l1 0M632 463l0 -1M631 463l1 0M630 464l1 -1M629 464l1 0M629 465l0 -1M628 465l1 0M627 466l1 -1M626 466l1 0M626 467l0 -1M625 467l1 0M624 468l1 -1"/>
<path stroke="red" d="M623 468l1 0M623 469l0 -1M621 469l2 0M621 470l0 -1M620 470l1 0M619 471l1 -1M618 471l1 0M618 472l0 -1M617 472l1 0M616 473l1 -1M615 473l1 0M615 474l0 -1M613 474l2 0M613 475l0 -1M612 475l1 0M611 476l1 -1M610 476l1 0M610 477l0 -1"/>
<path stroke="red" d="M609 477l1 0M608 478l1 -1M607 478l1 0M607 479l0 -1M606 479l1 0M605 480l1 -1M604 480l1 0M603 481l1 -1M602 481l1 0M602 482l0 -1M600 482l2 0M600 483l0 -1M599 483l1 0M598 484l1 -1M597 484l1 0M596 485l1 -1M595 485l1 0M595 486l0 -1"/>
<path stroke="red" d="M593 486l2 0M593 487l0 -1M591 487l2 0M591 488l0 -1M590 488l1 0M589 489l1 -1M588 489l1 0M587 490l1 -1M586 490l1 0M585 491l1 -1M584 491l1 0M584 492l0 -1M583 492l1 0M582 493l1 -1M581 493l1 0M580 494l1 -1M579 494l1 0M578 495l1 -1"/>
<path stroke="red" d="M577 495l1 0M576 496l1 -1M575 496l1 0M574 497l1 -1M573 497l1 0M572 498l1 -1M571 498l1 0M570 499l1 -1M569 499l1 0M568 500l1 -1M567 500l1 0M566 501l1 -1M565 501l1 0M564 502l1 -1M563 502l1 0M562 503l1 -1M561 503l1 0M560 504l1 -1"/>
<path stroke="red" d="M559 504l1 0M559 505l0 -1M557 505l2 0M557 506l0 -1M555 506l2 0M554 507l1 -1M553 507l1 0M552 508l1 -1M551 508l1 0M550 509l1 -1M548 509l2 0M548 510l0 -1M546 510l2 0M546 511l0 -1M544 511l2 0M543 512l1 -1M542 512l1 0M541 513l1 -1"/>
<path stroke="red" d="M539 513l2 0M539 514l0 -1M537 514l2 0M537 515l0 -1M535 515l2 0M535 516l0 -1M533 516l2 0M533 517l0 -1M531 517l2 0M530 518l1 -1M528 518l2 0M528 519l0 -1M526 519l2 0M526 520l0 -1M524 520l2 0M523 521l1 -1M521 521l2 0M521 522l0 -1"/>
<path stroke="red" d="M519 522l2 0M518 523l1 -1M516 523l2 0M516 524l0 -1M514 524l2 0M513 525l1 -1M511 525l2 0M511 526l0 -1M509 526l2 0M509 527l0 -1M507 527l2 0M506 528l1 -1M504 528l2 0M504 529l0 -1M502 529l2 0M501 530l1 -1M499 530l2 0M499 531l0 -1"/>
<path stroke="red" d="M497 531l2 0M496 532l1 -1M494 532l2 0M494 533l0 -1M492 533l2 0M491 534l1 -1M489 534l2 0M488 535l1 -1M486 535l2 0M486 536l0 -1M484 536l2 0M484 537l0 -1M481 537l3 0M481 538l0 -1M479 538l2 0M478 539l1 -1M476 539l2 0M475 540l1 -1"/>
<path stroke="red" d="M473 540l2 0M473 541l0 -1M470 541l3 0M470 542l0 -1M468 542l2 0M467 543l1 -1M465 543l2 0M464 544l1 -1M462 544l2 0M462 545l0 -1M460 545l2 0M459 546l1 -1M457 546l2 0M456 547l1 -1M454 547l2 0M454 548l0 -1M451 548l3 0M451 549l0 -1"/>
<path stroke="red" d="M448 549l3 0M448 550l0 -1M445 550l3 0M445 551l0 -1M443 551l2 0M442 552l1 -1M440 552l2 0M439 553l1 -1M437 553l2 0M437 554l0 -1M434 554l3 0M434 555l0 -1M431 555l3 0M431 556l0 -1M428 556l3 0M428 557l0 -1M425 557l3 0M425 558l0 -1"/>
<path stroke="red" d="M422 558l3 0M422 559l0 -1M419 559l3 0M419 560l0 -1M416 560l3 0M416 561l0 -1M413 561l3 0M413 562l0 -1M411 562l2 0M410 563l1 -1M408 563l2 0M407 564l1 -1M404 564l3 0M404 565l0 -1M401 565l3 0M401 566l0 -1M398 566l3 0M398 567l0 -1"/>
<path stroke="red" d="M395 567l3 0M395 568l0 -1M392 568l3 0M392 569l0 -1M389 569l3 0M389 570l0 -1M386 570l3 0M386 571l0 -1M383 571l3 0M383 572l0 -1M380 572l3 0M379 573l1 -1M377 573l2 0M376 574l1 -1M373 574l3 0M373 575l0 -1M370 575l3 0M370 576l0 -1"/>
<path stroke="red" d="M367 576l3 0M367 577l0 -1M364 577l3 0M364 578l0 -1M361 578l3 0M361 579l0 -1M358 579l3 0M357 580l1 -1M354 580l3 0M354 581l0 -1M351 581l3 0M351 582l0 -1M348 582l3 0M347 583l1 -1M345 583l2 0M344 584l1 -1M341 584l3 0M341 585l0 -1"/>
<path stroke="red" d="M338 585l3 0M338 586l0 -1M335 586l3 0M335 587l0 -1M332 587l3 0M331 588l1 -1M328 588l3 0M328 589l0 -1M325 589l3 0M325 590l0 -1M322 590l3 0M321 591l1 -1M318 591l3 0M318 592l0 -1M315 592l3 0M315 593l0 -1M312 593l3 0M312 594l0 -1"/>
<path stroke="red" d="M309 594l3 0M308 595l1 -1M305 595l3 0M305 596l0 -1M302 596l3 0M301 597l1 -1M298 597l3 0M298 598l0 -1M295 598l3 0M294 599l1 -1M291 599l3 0M291 600l0 -1M289 600l2 0M288 601l1 -1M285 601l3 0M285 602l0 -1M282 602l3 0M281 603l1 -1"/>
<path stroke="red" d="M278 603l3 0M278 604l0 -1M275 604l3 0M274 605l1 -1M271 605l3 0M271 606l0 -1M268 606l3 0M267 607l1 -1M265 607l2 0M264 608l1 -1M261 608l3 0M261 609l0 -1M258 609l3 0M257 610l1 -1M254 610l3 0M253 611l1 -1M250 611l3 0M250 612l0 -1"/>
<path stroke="red" d="M247 612l3 0M246 613l1 -1M243 613l3 0M243 614l0 -1M240 614l3 0M240 615l0 -1M237 615l3 0M236 616l1 -1M233 616l3 0M233 617l0 -1M230 617l3 0M229 618l1 -1M226 618l3 0M225 619l1 -1M222 619l3 0M222 620l0 -1M219 620l3 0M218 621l1 -1"/>
<path stroke="red" d="M216 621l2 0M215 622l1 -1M212 622l3 0M211 623l1 -1M208 623l3 0M208 624l0 -1M205 624l3 0M204 625l1 -1M201 625l3 0M201 626l0 -1M197 626l4 0M197 627l0 -1M194 627l3 0M193 628l1 -1M191 628l2 0M190 629l1 -1M187 629l3 0M186 630l1 -1"/>
<path stroke="red" d="M183 630l3 0M183 631l0 -1M180 631l3 0M179 632l1 -1M176 632l3 0M175 633l1 -1M172 633l3 0M172 634l0 -1M169 634l3 0M168 635l1 -1M165 635l3 0M165 636l0 -1M162 636l3 0M161 637l1 -1M158 637l3 0M157 638l1 -1M154 638l3 0M154 639l0 -1"/>
<path stroke="red" d="M151 639l3 0M150 640l1 -1M147 640l3 0M146 641l1 -1M144 641l2 0M143 642l1 -1M140 642l3 0M139 643l1 -1M136 643l3 0M136 644l0 -1M132 644l4 0M132 645l0 -1M129 645l3 0M128 646l1 -1M125 646l3 0M124 647l1 -1M121 647l3 0M121 648l0 -1"/>
<path stroke="red" d="M118 648l3 0M117 649l1 -1M114 649l3 0M114 650l0 -1M110 650l4 0M110 651l0 -1M106 651l4 0M106 652l0 -1M103 652l3 0M102 653l1 -1M99 653l3 0M98 654l1 -1M95 654l3 0M95 655l0 -1M92 655l3 0M91 656l1 -1M88 656l3 0M87 657l1 -1M84 657l3 0"/>
<path stroke="red" d="M84 658l0 -1M80 658l4 0M80 659l0 -1M77 659l3 0M76 660l1 -1M73 660l3 0M72 661l1 -1M70 661l2 0"/>
</svg>
